<?xml version="1.0" standalone="no"?>
<!DOCTYPE svg PUBLIC "-//W3C//DTD SVG 1.1//EN" "http://www.w3.org/Graphics/SVG/1.1/DTD/svg11.dtd" >
<svg>
<metadata>
Created by FontForge 20090914 at Sat Nov 17 16:39:00 2012
 By www-data
Copyright 1990-1993 Bitstream Inc.  All rights reserved.
</metadata>
<defs>
<font id="FuturaBT-MediumCondensed" horiz-adv-x="788" >
  <font-face 
    font-family="Futura MdCn BT"
    font-weight="400"
    font-stretch="condensed"
    units-per-em="2048"
    panose-1="2 11 5 6 2 2 4 3 2 3"
    ascent="1638"
    descent="-410"
    x-height="981"
    cap-height="1460"
    bbox="-342 -483 2132 1970"
    underline-thickness="121"
    underline-position="-137"
    unicode-range="U+0020-U+F002"
  />
<missing-glyph horiz-adv-x="1970" 
d="M123 0v1970h1724v-1970h-1724zM1724 123v1724h-1478v-1724h1478z" />
    <glyph glyph-name=".notdef" horiz-adv-x="1970" 
d="M123 0v1970h1724v-1970h-1724zM1724 123v1724h-1478v-1724h1478z" />
    <glyph glyph-name="space" unicode=" " horiz-adv-x="395" 
 />
    <glyph glyph-name="exclam" unicode="!" horiz-adv-x="557" 
d="M164 94c0 32 11.167 59.167 33.5 81.5s49.5 33.5 81.5 33.5c30.667 0 57 -11.167 79 -33.5s33 -49.5 33 -81.5c0 -30 -10.833 -56.167 -32.5 -78.5s-48.167 -33.5 -79.5 -33.5c-32.667 0 -60 10.833 -82 32.5s-33 48.167 -33 79.5zM188 356v1104h181v-1104h-181z" />
    <glyph glyph-name="quotedbl" unicode="&#x22;" horiz-adv-x="590" 
d="M496 1434v-553h-119v553h119zM211 1434v-553h-117v553h117z" />
    <glyph glyph-name="numbersign" unicode="#" horiz-adv-x="1575" 
d="M973 862h-264l-95 -272h263zM922 1456l-166 -471h260l168 471h143l-164 -471h307l-43 -123h-311l-94 -272h330l-43 -123h-332l-166 -469h-145l168 469h-265l-168 -469h-143l166 469h-320l43 123h320l96 272h-342l43 123h344l168 471h146z" />
    <glyph glyph-name="dollar" unicode="$" 
d="M215 291c12.667 -45.333 30.832 -78.5029 54.499 -99.5029s53.834 -31.5 90.501 -31.5c54.667 0 97 18.167 127 54.5s45 88.5 45 156.5c0 58 -10.667 105.333 -32 142c-20 38.667 -62.333 80.667 -127 126l-116 78c-54 34.667 -89 61.334 -105 80.001
c-34.667 36.667 -59.834 77.334 -75.501 122.001s-23.5 98 -23.5 160c0 100.667 17.333 182.5 52 245.5s87 107.5 157 133.5v213h82v-196l27 1l41 1h22v194h82v-207c42.667 -8 80 -28.333 112 -61s63 -81.334 93 -146.001l-162 -81c-10 42.667 -27.167 74.834 -51.5 96.501
s-55.5 32.5 -93.5 32.5c-55.333 0 -97.166 -16.167 -125.499 -48.5s-42.5 -80.5 -42.5 -144.5c0 -54.667 10 -100.5 30 -137.5s65.333 -79.167 136 -126.5l77 -53c75.333 -51.333 122 -87.666 140 -108.999c34 -38.667 59.5 -81.5 76.5 -128.5s25.5 -99.167 25.5 -156.5
c0 -100.667 -18.333 -185 -55 -253s-90 -116.667 -160 -146v-213h-82v193l-6 -1l-49 -4l-18 2l-15 1v-191h-84v205c-48 13.333 -89.333 37 -124 71s-63 79.333 -85 136z" />
    <glyph glyph-name="percent" unicode="%" horiz-adv-x="1573" 
d="M1122 408c0 -124.667 7.83301 -205 23.5 -241s44.167 -54 85.5 -54s70 18.833 86 56.5s24 117.167 24 238.5c0 120.667 -7.83301 199.834 -23.5 237.501s-44.5 56.5 -86.5 56.5c-40.667 0 -69 -17.833 -85 -53.5s-24 -115.834 -24 -240.501zM973 408
c0 168.667 18.667 281.333 56 338s104.666 85 201.999 85s164.666 -28.667 201.999 -86s56 -169.666 56 -336.999c0 -170 -18.667 -283.5 -56 -340.5s-104.666 -85.5 -201.999 -85.5s-164.666 28.667 -201.999 86s-56 170.666 -56 339.999zM514 -18.001h-127l664 1497h127z
M223 1047c0 -120 7.99805 -199.168 23.998 -237.501s45 -57.5 87 -57.5c40.667 0 68.834 18.333 84.501 55s23.5 116.667 23.5 240c0 124 -7.66699 204 -23 240s-43.666 54 -84.999 54c-42 0 -71 -18.167 -87 -54.5s-24 -116.166 -24 -239.499zM75.998 1047
c0 170 18.668 283.501 56.001 340.501s104.666 85.5 201.999 85.5c96 0 163 -29 201 -87s57 -171 57 -339c0 -170.667 -18.667 -284.334 -56 -341.001s-104.666 -85 -201.999 -85c-96.667 0 -163.834 28.5 -201.501 85.5s-56.5 170.5 -56.5 340.5z" />
    <glyph glyph-name="ampersand" unicode="&#x26;" horiz-adv-x="1042" 
d="M606 276l-225 367c-39.333 -42.667 -70 -85.667 -92 -129c-19.333 -42.667 -29 -85.667 -29 -129c0 -64 16.5 -116.5 49.5 -157.5s74.5 -61.5 124.5 -61.5c29.333 0 58.5 9.16699 87.5 27.5s57.167 45.833 84.5 82.5zM428 920
c57.333 54.667 98.998 104.166 124.998 148.499s39 87.5 39 129.5c0 38 -11.167 68.667 -33.5 92s-52.166 35 -89.499 35s-67.5 -12.833 -90.5 -38.5s-34.5 -61.167 -34.5 -106.5c0 -19.333 1.33301 -37.166 4 -53.499s7.33398 -35 14.001 -56s15.5 -44 26.5 -69
s24.167 -52.167 39.5 -81.5zM771.998 -0.000976562l-76.001 122.999c-44 -46.667 -89.833 -81.5 -137.5 -104.5s-96.5 -34.5 -146.5 -34.5c-96 0 -175.333 37.333 -238 112s-94 169 -94 283c0 70 16.833 138.333 50.5 205s87.167 137 160.5 211
c-40 65.333 -70.833 130.833 -92.5 196.5s-32.5 127.167 -32.5 184.5c0 90 27 163.333 81 220s126.667 85 218 85c85.333 0 157.5 -28.167 216.5 -84.5s88.5 -125.166 88.5 -206.499c0 -64.667 -20.167 -131 -60.5 -199s-104.166 -141 -191.499 -219l217 -352l137 188
l136 -96l-179 -244l164 -268h-221z" />
    <glyph glyph-name="quotesingle" unicode="'" horiz-adv-x="305" 
d="M211 1434v-553h-117v553h117z" />
    <glyph glyph-name="parenleft" unicode="(" horiz-adv-x="559" 
d="M315 -432c-64.667 163.333 -113.832 330.997 -147.499 502.997s-50.5 344.333 -50.5 517c0 177.333 16.333 349.666 49 516.999c16 84.667 36.333 168.834 61 252.501s54 167.834 88 252.501l172 -56c-58.667 -147.333 -104.334 -302.666 -137.001 -465.999
c-30 -160 -45 -326.667 -45 -500c0 -171.333 15 -337.666 45 -498.999c15.333 -81.333 34 -159.833 56 -235.5s49 -152.5 81 -230.5z" />
    <glyph glyph-name="parenright" unicode=")" horiz-adv-x="559" 
d="M242 1612c66 -168 115.834 -336.998 149.501 -506.998s50.5 -341.667 50.5 -515c0 -88.667 -4 -175 -12 -259s-20.667 -169 -38 -255c-32 -166.667 -82 -335.334 -150 -506.001l-172 55c59.333 150 104.666 305.333 135.999 466c14.667 78.667 26 160.167 34 244.5
s12 169.166 12 254.499c0 174 -15.167 341 -45.5 501s-75.833 315 -136.5 465z" />
    <glyph glyph-name="asterisk" unicode="*" horiz-adv-x="780" 
d="M342 838v225l-197 -111l-49 84l197 113l-197 115l49 84l197 -113v225h98v-225l195 113l49 -86l-197 -113l197 -113l-49 -84l-195 113v-227h-98z" />
    <glyph glyph-name="plus" unicode="+" horiz-adv-x="1706" 
d="M913 1221v-551h539v-117h-539v-553h-118v553h-541v117h541v551h118z" />
    <glyph glyph-name="comma" unicode="," horiz-adv-x="395" 
d="M340 197l-186 -514l-101 30l133 531z" />
    <glyph glyph-name="hyphen" unicode="-" horiz-adv-x="559" 
d="M76 410v161h407v-161h-407z" />
    <glyph glyph-name="period" unicode="." horiz-adv-x="395" 
d="M84 92c0 32.667 10.999 60 32.999 82s48.667 33 80 33c30.667 0 57.334 -11.333 80.001 -34s34 -49.667 34 -81c0 -30 -11 -56.667 -33 -80c-22.667 -21.333 -49.667 -32 -81 -32c-32.667 0 -59.667 11 -81 33s-32 48.333 -32 79z" />
    <glyph glyph-name="slash" unicode="/" horiz-adv-x="567" 
d="M0 -190l422 1669h145l-422 -1669h-145z" />
    <glyph glyph-name="zero" unicode="0" 
d="M254 731c0 -240 10.002 -396.166 30.002 -468.499s57 -108.5 111 -108.5c51.333 0 87.666 35 108.999 105c10 35.333 17.667 92.166 23 170.499s8 178.833 8 301.5c0 245.333 -10.167 403 -30.5 473s-56.833 105 -109.5 105s-89.334 -35.833 -110.001 -107.5
s-31 -228.5 -31 -470.5zM63.002 729.001c0 166 3.66992 287.999 11.0029 365.999s19.666 137 36.999 177c28 72 64.833 124.5 110.5 157.5s103.5 49.5 173.5 49.5s127.333 -16.167 172 -48.5s81.667 -85.166 111 -158.499c16 -42 28 -103.333 36 -184
c3.33301 -37.333 6 -86.5 8 -147.5s3 -131.5 3 -211.5c0 -164.667 -3.5 -285.5 -10.5 -362.5s-19.167 -136.5 -36.5 -178.5c-28.667 -71.333 -65.334 -123.5 -110.001 -156.5s-102.334 -49.5 -173.001 -49.5c-70 0 -127.333 15.833 -172 47.5s-82 84.5 -112 158.5
c-16.667 39.333 -29 100 -37 182c-3.33301 37.333 -6 86.5 -8 147.5s-3 131.5 -3 211.5z" />
    <glyph glyph-name="one" unicode="1" 
d="M324 0v1284h-181v176h363v-1460h-182z" />
    <glyph glyph-name="two" unicode="2" 
d="M33 0l389 773.999c34 67.333 59.5 130 76.5 188s25.5 110 25.5 156c0 64 -10.833 111.833 -32.5 143.5s-55.167 47.5 -100.5 47.5c-50 0 -85.667 -20.667 -107 -62s-32 -111.666 -32 -210.999v-51h-184l-2 28v46c0 138 28.167 242.5 84.5 313.5
s139.833 106.5 250.5 106.5c100 0 179 -32 237 -96s87 -152.333 87 -265c0 -66.667 -11.333 -135 -34 -205c-12 -37.333 -26.667 -75.5 -44 -114.5s-40.333 -84.5 -69 -136.5l-261 -476h379v-186h-663z" />
    <glyph glyph-name="three" unicode="3" 
d="M43 381l172 0.00292969l-1 -18l-1 -17c0 -62 13 -108.833 39 -140.5s64.333 -47.5 115 -47.5c52.667 0 91.667 20.167 117 60.5s38 104.166 38 191.499c0 111.333 -16.667 184.833 -50 220.5s-97.666 53.5 -192.999 53.5h-29v159l25 -1h38c75.333 0 126.333 17 153 51
s40 105 40 213c0 72 -10.333 125.5 -31 160.5s-52 52.5 -94 52.5c-48 0 -83.667 -19 -107 -57c-12 -20 -21.167 -45.667 -27.5 -77s-9.5 -70 -9.5 -116h-167l-2 23v38c0 115.333 25 202.333 75 261s126 88 228 88c109.333 0 190.5 -32.667 243.5 -98
s79.5 -165.333 79.5 -300c0 -92.667 -14.167 -164.834 -42.5 -216.501s-72.166 -84.5 -131.499 -98.5c68 -12 117.5 -44 148.5 -96s46.5 -131.333 46.5 -238c0 -156.667 -28.833 -270.834 -86.5 -342.501s-149.834 -107.5 -276.501 -107.5
c-102.667 0 -179.834 30.167 -231.501 90.5s-77.5 151.5 -77.5 273.5v35z" />
    <glyph glyph-name="four" unicode="4" 
d="M440 561v578l-262 -578h262zM436 0v397h-395v187l412 876h168v-899h104v-164h-104v-397h-185z" />
    <glyph glyph-name="five" unicode="5" 
d="M63 225c16 -11.333 31.5 -21.166 46.5 -29.499s31.167 -15.333 48.5 -21s33.5 -9.83398 48.5 -12.501s31.5 -4 49.5 -4c86.667 0 151.667 30 195 90s65 148.667 65 266c0 89.333 -22.333 156.333 -67 201s-111 67 -199 67c-16.667 0 -32.667 -0.333008 -48 -1
s-32.833 -2.16699 -52.5 -4.5s-41.5 -7.16602 -65.5 -14.499l96 698h510v-180h-356l-57 -356l52 7l42 3c98.667 0 178.5 -39.167 239.5 -117.5s91.5 -181.833 91.5 -310.5c0 -163.333 -36.833 -291.5 -110.5 -384.5s-176.5 -139.5 -308.5 -139.5
c-23.333 0 -46.833 1.33301 -70.5 4s-46.5 7 -68.5 13c-44.667 11.333 -88 28.666 -130 51.999z" />
    <glyph glyph-name="six" unicode="6" 
d="M248 449c0 -102.667 12.001 -177.167 36.001 -223.5s61.667 -69.5 113 -69.5c50 0 86.833 23.333 110.5 70s35.5 121.667 35.5 225c0 107.333 -11.333 182.5 -34 225.5s-61.334 64.5 -116.001 64.5c-50 0 -87 -23 -111 -69c-10.667 -22 -19 -51.833 -25 -89.5
s-9 -82.167 -9 -133.5zM281.001 831c22.667 24 48.167 42.332 76.5 54.999s57.833 19 88.5 19c97.333 0 167.5 -34.5 210.5 -103.5s64.5 -183.167 64.5 -342.5c0 -163.333 -26.667 -284 -80 -362s-136 -117 -248 -117c-108.667 0 -190 41 -244 123s-81 205.333 -81 370
c0 133.333 22.333 270.333 67 411c22.667 72.667 55.167 156 97.5 250s96.5 202.667 162.5 326h215l-77 -136l-67 -122l-59 -109c-52.667 -101.333 -94.667 -188.666 -126 -261.999z" />
    <glyph glyph-name="seven" unicode="7" 
d="M78 0l434 1286h-442v174h696l-487 -1460h-201z" />
    <glyph glyph-name="eight" unicode="8" 
d="M537 793c63.333 -22 108.499 -60.1689 135.499 -114.502s40.5 -139.166 40.5 -254.499c0 -84 -3.16699 -145 -9.5 -183s-17.5 -72 -33.5 -102c-27.333 -50.667 -65 -89.667 -113 -117c-24 -13.333 -49.333 -23.333 -76 -30s-56 -10 -88 -10
c-48 0 -92.167 8.33301 -132.5 25s-75.166 41.5 -104.499 74.5s-50.333 72.5 -63 118.5s-19 120.667 -19 224c0 116 13.333 200.667 40 254s72.667 91.666 138 114.999c-60.667 26 -102.834 62.333 -126.501 109s-35.5 121.334 -35.5 224.001c0 122 24.333 211.333 73 268
s125.334 85 230.001 85c106 0 183.333 -28.333 232 -85s73 -146 73 -268c0 -101.333 -12 -175.166 -36 -221.499s-65.667 -83.5 -125 -111.5zM259.999 435.998c0 -106.667 10 -180.333 30 -221s54.333 -61 103 -61c47.333 0 81.333 19 102 57s31 107 31 207
c0 106.667 -10 180.667 -30 222s-54.333 62 -103 62c-47.333 0 -81.333 -20.667 -102 -62s-31 -109.333 -31 -204zM392.999 867.999c44 0 76 17.333 96 52c10 17.333 17.333 40 22 68s7 64 7 108c0 80.667 -9.66699 138 -29 172s-51.333 51 -96 51
c-43.333 0 -74.666 -16.5 -93.999 -49.5s-29 -90.833 -29 -173.5c0 -84 9.16699 -143 27.5 -177s50.166 -51 95.499 -51z" />
    <glyph glyph-name="nine" unicode="9" 
d="M541 1012c0 101.333 -12.166 175.499 -36.499 222.499s-62.833 70.5 -115.5 70.5c-50 0 -86.333 -23.5 -109 -70.5s-34 -121.833 -34 -224.5c0 -107.333 11.167 -182.666 33.5 -225.999s60.166 -65 113.499 -65c51.333 0 88.833 23.167 112.5 69.5
s35.5 120.833 35.5 223.5zM508.001 628.999c-24 -24 -49.667 -42.334 -77 -55.001s-57 -19 -89 -19c-96 0 -165.667 34.667 -209 104s-65 183.333 -65 342c0 164.667 26.5 285.834 79.5 363.501s135.5 116.5 247.5 116.5c108 0 189 -41.167 243 -123.5s81 -206.5 81 -372.5
c0 -132.667 -22.167 -269 -66.5 -409s-131.5 -332 -261.5 -576h-213l121 217l88 163c44.667 85.333 85 168.333 121 249z" />
    <glyph glyph-name="colon" unicode=":" horiz-adv-x="557" 
d="M164 610c0 32 11.167 59.167 33.5 81.5s49.5 33.5 81.5 33.5c30.667 0 57 -11.167 79 -33.5s33 -49.5 33 -81.5c0 -30 -10.833 -56.167 -32.5 -78.5s-48.167 -33.5 -79.5 -33.5c-32.667 0 -60 10.833 -82 32.5s-33 48.167 -33 79.5zM164 92c0 32 11.167 59.167 33.5 81.5
s49.5 33.5 81.5 33.5c30.667 0 57 -11.167 79 -33.5s33 -49.5 33 -81.5c0 -30 -10.833 -56.167 -32.5 -78.5s-48.167 -33.5 -79.5 -33.5c-32.667 0 -60 10.833 -82 32.5s-33 48.167 -33 79.5z" />
    <glyph glyph-name="semicolon" unicode=";" horiz-adv-x="557" 
d="M195 610c0 32.667 11 60 33 82s48.333 33 79 33c32 0 59.167 -11.333 81.5 -34s33.5 -49.667 33.5 -81c0 -30.667 -11.333 -57.334 -34 -80.001c-22.667 -21.333 -49.667 -32 -81 -32s-58 10.667 -80 32c-21.333 22.667 -32 49.334 -32 80.001zM135 -287l133 531l154 -47
l-186 -514z" />
    <glyph glyph-name="less" unicode="&#x3c;" horiz-adv-x="1706" 
d="M1442 1018l-1000 -408l1000 -405v-129l-1178 483v103l1178 483v-127z" />
    <glyph glyph-name="equal" unicode="=" horiz-adv-x="1706" 
d="M1452 477v-117h-1198v117h1198zM1452 860v-117h-1198v117h1198z" />
    <glyph glyph-name="greater" unicode="&#x3e;" horiz-adv-x="1706" 
d="M1442 662v-103l-1178 -483v129l1000 405l-1000 408v127z" />
    <glyph glyph-name="question" unicode="?" horiz-adv-x="561" 
d="M178 362v432.999h6c68.667 0 115.167 15.167 139.5 45.5s36.5 108.5 36.5 234.5c0 98.667 -6.66699 164.667 -20 198c-12 34.667 -34.667 52 -68 52c-34 0 -57.833 -15 -71.5 -45s-20.5 -86 -20.5 -168h-166v31c0 120.667 20.167 206.834 60.5 258.501
s107.5 77.5 201.5 77.5s160.167 -24.167 198.5 -72.5s57.5 -134.833 57.5 -259.5c0 -195.333 -13 -323 -39 -383s-72.667 -90 -140 -90l-1 -312h-174zM147 93.999c0 32 11.333 59.168 34 81.501s49.667 33.5 81 33.5c32 0 59.167 -11.333 81.5 -34s33.5 -49.667 33.5 -81
c0 -30.667 -11.333 -57.334 -34 -80.001c-22.667 -21.333 -49.667 -32 -81 -32c-32.667 0 -60 10.833 -82 32.5s-33 48.167 -33 79.5z" />
    <glyph glyph-name="at" unicode="@" horiz-adv-x="2048" 
d="M1292 844l58.0039 120.999h110l-141 -568l-9 -44l-3 -36c0 -28.667 9.16699 -50.834 27.5 -66.501s45.833 -23.5 82.5 -23.5c29.333 0 62.333 8 99 24s71.334 37.333 104.001 64c58.667 50 105 115.167 139 195.5s51 165.5 51 255.5
c0 176.667 -65.167 319.167 -195.5 427.5s-303.166 162.5 -518.499 162.5c-112.667 0 -216.834 -17.167 -312.501 -51.5s-182.167 -85.5 -259.5 -153.5c-92.667 -80.667 -162.834 -174.667 -210.501 -282s-71.5 -225.666 -71.5 -354.999c0 -114.667 20 -215.667 60 -303
s102.333 -164.333 187 -231c66 -53.333 146 -94.666 240 -123.999c46 -14.667 93.167 -25.667 141.5 -33s99.5 -11 153.5 -11c114.667 0 226.167 16.167 334.5 48.5s207.166 78.833 296.499 139.5l45 -66c-98 -72 -202.333 -126.833 -313 -164.5
s-226.334 -56.5 -347.001 -56.5c-129.333 0 -245.666 15.333 -348.999 46s-195 77 -275 139c-102.667 78.667 -178.834 169.5 -228.501 272.5s-74.5 220.167 -74.5 351.5c0 54.667 4 107.334 12 158.001s20.667 101 38 151c33.333 96 83.333 185.667 150 269
c97.333 117.333 214.166 206.333 350.499 267s287.166 91 452.499 91c111.333 0 215.166 -14.333 311.499 -43s178.833 -70.334 247.5 -125.001c86.667 -66.667 152 -143.667 196 -231s66 -181 66 -281c0 -112 -20.667 -214.5 -62 -307.5s-102.333 -172.167 -183 -237.5
c-46.667 -36.667 -96.667 -64.5 -150 -83.5s-107.333 -28.5 -162 -28.5c-65.333 0 -114.666 13.167 -147.999 39.5s-50 64.833 -50 115.5l1 11l1 12c-34 -58 -76.167 -102.167 -126.5 -132.5s-107.166 -45.5 -170.499 -45.5c-102 0 -179.833 28.333 -233.5 85
s-80.5 139 -80.5 247c0 153.333 45.667 283 137 389s202 159 332 159c60.667 0 111.667 -13.167 153 -39.5s73.666 -65.5 96.999 -117.5zM1202 472.999l60.001 242.001c-10.667 59.333 -34.5 105.833 -71.5 139.5s-82.167 50.5 -135.5 50.5
c-96.667 0 -177.834 -43.833 -243.501 -131.5s-98.5 -196.834 -98.5 -327.501c0 -72 17 -128.167 51 -168.5s82.333 -60.5 145 -60.5c68.667 0 129.667 23.167 183 69.5s90 108.5 110 186.5z" />
    <glyph glyph-name="A" unicode="A" horiz-adv-x="901" 
d="M451 1083l-132 -632h263zM16 0l342 1460h185l342 -1460h-199l-70 287h-333l-68 -287h-199z" />
    <glyph glyph-name="B" unicode="B" horiz-adv-x="889" 
d="M313 834l72 -0.000976562c74 0 128.333 18.333 163 55s52 94 52 172c0 82.667 -16.167 140.834 -48.5 174.501s-87.833 50.5 -166.5 50.5h-72v-452zM313 185.999h66c90 0 152 17.167 186 51.5s51 95.833 51 184.5c0 88 -18.167 151.667 -54.5 191s-96.5 59 -180.5 59h-68
v-486zM117 -0.000976562l0.000976562 1460h270c142 0 245.167 -29.167 309.5 -87.5s96.5 -152.5 96.5 -282.5c0 -98 -15.5 -173 -46.5 -225s-81.167 -89.667 -150.5 -113c75.333 -18 130.666 -53.5 165.999 -106.5s53 -128.167 53 -225.5
c0 -144.667 -33.167 -250.834 -99.5 -318.501s-170.5 -101.5 -312.5 -101.5h-286z" />
    <glyph glyph-name="C" unicode="C" horiz-adv-x="780" 
d="M735 33c-16 -8.66699 -31.5 -15.8311 -46.5 -21.498s-32.5 -11.167 -52.5 -16.5c-36 -8.66699 -71.333 -13 -106 -13c-148 0 -259.333 61 -334 183s-112 306 -112 552c0 250 39.5 439.5 118.5 568.5s195.833 193.5 350.5 193.5c35.333 0 67.333 -3.33301 96 -10
c31.333 -6 60 -15.667 86 -29v-187c-26.667 13.333 -53.667 23.666 -81 30.999c-10 2.66699 -22 5 -36 7s-26 3 -36 3c-103.333 0 -179.333 -45.833 -228 -137.5s-73 -237.5 -73 -437.5c0 -186.667 22.833 -324.834 68.5 -414.501s116.167 -134.5 211.5 -134.5
c27.333 0 54.833 4.33301 82.5 13s58.167 22.667 91.5 42v-192z" />
    <glyph glyph-name="D" unicode="D" horiz-adv-x="1014" 
d="M330 188l102 -0.000976562c109.333 0 186.833 40.167 232.5 120.5s68.5 221.833 68.5 424.5s-22.167 343.834 -66.5 423.501s-122.5 119.5 -234.5 119.5h-102v-1088zM131 -0.000976562v1460h260c198 0 337.667 -54.5 419 -163.5s122 -297.5 122 -565.5
c0 -268.667 -40.333 -457.667 -121 -567s-220.667 -164 -420 -164h-260z" />
    <glyph glyph-name="E" unicode="E" horiz-adv-x="786" 
d="M125 0v1460h584v-176h-387v-434h354v-174h-354v-494h387v-182h-584z" />
    <glyph glyph-name="F" unicode="F" horiz-adv-x="786" 
d="M131 0v1460h598v-176h-401v-436h368v-174h-368v-674h-197z" />
    <glyph glyph-name="G" unicode="G" horiz-adv-x="1004" 
d="M924 784l4.00195 -90l2 -84c0 -213.333 -34.833 -371.333 -104.5 -474s-176.834 -154 -321.501 -154c-148.667 0 -256.5 58.333 -323.5 175s-100.5 307.334 -100.5 572.001c0 269.333 33.5 461.666 100.5 576.999s176.833 173 329.5 173
c108.667 0 195.667 -25.333 261 -76s110.666 -128 135.999 -232l-174 -84c-14 71.333 -39.333 124.333 -76 159s-85 52 -145 52c-84.667 0 -144.667 -41.167 -180 -123.5s-53 -229.5 -53 -441.5s17.5 -359.167 52.5 -441.5s95.167 -123.5 180.5 -123.5
c76 0 133.167 31.5 171.5 94.5s57.5 156.5 57.5 280.5l-1 42l-1 27h-209v172h394z" />
    <glyph glyph-name="H" unicode="H" horiz-adv-x="1008" 
d="M131 0v1460h197v-555h352v555h197v-1460h-197v721h-352v-721h-197z" />
    <glyph glyph-name="I" unicode="I" horiz-adv-x="461" 
d="M131 0v1460h197v-1460h-197z" />
    <glyph glyph-name="J" unicode="J" horiz-adv-x="621" 
d="M297 1460h196.999v-1083c0 -134.667 -24.833 -234.5 -74.5 -299.5s-126.167 -97.5 -229.5 -97.5c-36.667 0 -72.167 5.16699 -106.5 15.5s-68.166 26.833 -101.499 49.5v201c30 -25.333 59.667 -45 89 -59c29.333 -12.667 57 -19 83 -19c49.333 0 85.5 16.333 108.5 49
s34.5 84 34.5 154v1089z" />
    <glyph glyph-name="K" unicode="K" horiz-adv-x="891" 
d="M121 0v1460h196v-692l345 692h204l-348 -694l348 -766h-211l-338 750v-750h-196z" />
    <glyph glyph-name="L" unicode="L" horiz-adv-x="772" 
d="M131 0v1460h197v-1278h422v-182h-619z" />
    <glyph glyph-name="M" unicode="M" horiz-adv-x="1145" 
d="M72 0l125 1460h178l198 -1011l203 1011h172l127 -1460h-182l-59 1024l-195 -1024h-133l-195 1024l-59 -1024h-180z" />
    <glyph glyph-name="N" unicode="N" horiz-adv-x="1014" 
d="M129 0v1460h182l387 -1014v1014h187v-1460h-185l-385 1022v-1022h-186z" />
    <glyph glyph-name="O" unicode="O" horiz-adv-x="1006" 
d="M287 733c0 -208 16.832 -354.166 50.499 -438.499s89.834 -126.5 168.501 -126.5c78 0 133 40.167 165 120.5s48 228.5 48 444.5c0 210.667 -16.167 357.167 -48.5 439.5s-87.833 123.5 -166.5 123.5c-78 0 -134 -41.667 -168 -125
c-15.333 -40.667 -27.333 -98.334 -36 -173.001s-13 -163 -13 -265zM87.999 729.001c0 266.667 32.5 458.331 97.5 574.998s171.167 175 318.5 175c145.333 0 250.666 -58 315.999 -174s98 -308 98 -576c0 -267.333 -32.167 -458.666 -96.5 -573.999
s-170.166 -173 -317.499 -173s-253.5 57.833 -318.5 173.5s-97.5 306.834 -97.5 573.501z" />
    <glyph glyph-name="P" unicode="P" horiz-adv-x="897" 
d="M328 819h73.001c88 0 150.667 18.167 188 54.5s56 97.5 56 183.5c0 82 -19.833 141 -59.5 177s-105.834 54 -198.501 54h-59v-469zM131.001 0v1460h240c89.333 0 158.5 -6.16699 207.5 -18.5s91.833 -33.5 128.5 -63.5c42 -34 75 -79.833 99 -137.5s36 -121.5 36 -191.5
c0 -132.667 -38.833 -233.834 -116.5 -303.501s-191.167 -104.5 -340.5 -104.5h-36c-10 0 -17 0.666992 -21 2v-643h-197z" />
    <glyph glyph-name="Q" unicode="Q" horiz-adv-x="1006" 
d="M813 -113l-105.998 148.001c-14.667 -8 -30.334 -15.167 -47.001 -21.5s-34.667 -11.833 -54 -16.5c-36.667 -8.66699 -72 -13 -106 -13c-146 0 -251.167 57.667 -315.5 173s-96.5 306.666 -96.5 573.999c0 266 32.5 457.167 97.5 573.5s171.167 174.5 318.5 174.5
c145.333 0 250.666 -58 315.999 -174s98 -307.333 98 -574c0 -146 -9 -269.333 -27 -370s-44.667 -176 -80 -226l119 -164zM465.002 369.001l117.002 83.998l104 -144c12.667 36 22 89 28 159s9 166.667 9 290c0 198 -16.833 337.167 -50.5 417.5
s-89.834 120.5 -168.501 120.5c-80 0 -136.833 -41.333 -170.5 -124s-50.5 -229 -50.5 -439c0 -204.667 16.5 -349.667 49.5 -435s88.167 -128 165.5 -128c5.33301 0 11.666 0.333008 18.999 1s17 2.33398 29 5.00098s28 7.33398 48 14.001z" />
    <glyph glyph-name="R" unicode="R" horiz-adv-x="891" 
d="M328 825h61c80 0 136.5 18.667 169.5 56s49.5 103.333 49.5 198c0 77.333 -16 131.5 -48 162.5s-91 46.5 -177 46.5h-55v-463zM328 713v-713.002h-197v1460h238c158 0 270.5 -29.167 337.5 -87.5s100.5 -156.166 100.5 -293.499
c0 -107.333 -22.833 -191.166 -68.5 -251.499s-114.5 -96.5 -206.5 -108.5l347 -719h-211l-334 713h-6z" />
    <glyph glyph-name="S" unicode="S" 
d="M94 256c44.667 -27.333 87.335 -48.165 128.002 -62.498s78 -21.5 112 -21.5c60 0 107.667 17.5 143 52.5s53 81.833 53 140.5c0 86 -67.667 184.333 -203 295l-36 30c-84.667 70 -144.834 136 -180.501 198s-53.5 130.667 -53.5 206c0 109.333 35 200.833 105 274.5
s156.667 110.5 260 110.5c45.333 0 89.166 -5.16699 131.499 -15.5s83.833 -27.166 124.5 -50.499v-196c-19.333 13.333 -37.833 24.666 -55.5 33.999s-36.5 17.666 -56.5 24.999c-36.667 13.333 -72.334 20 -107.001 20c-62 0 -111.667 -18.167 -149 -54.5
s-56 -84.833 -56 -145.5c0 -84 71.667 -183.333 215 -298l31 -24c84 -67.333 143.167 -132.333 177.5 -195s51.5 -133.334 51.5 -212.001c0 -112.667 -35.667 -205 -107 -277s-162.666 -108 -273.999 -108c-39.333 0 -80.5 6 -123.5 18s-86.5 30.333 -130.5 55v201z" />
    <glyph glyph-name="T" unicode="T" horiz-adv-x="780" 
d="M291 0v1278h-271v182h740v-182h-271v-1278h-198z" />
    <glyph glyph-name="U" unicode="U" horiz-adv-x="1008" 
d="M119 389v1071h194v-1087c0 -70 15.667 -121.667 47 -155s79.333 -50 144 -50c64 0 111.667 16.667 143 50s47 85 47 155v1087h195v-1071c0 -140.667 -30.833 -243.667 -92.5 -309s-159.167 -98 -292.5 -98c-132.667 0 -230 32.5 -292 97.5s-93 168.167 -93 309.5z" />
    <glyph glyph-name="V" unicode="V" horiz-adv-x="848" 
d="M506 0h-166l-320 1460h199l205 -991l205 991h198z" />
    <glyph glyph-name="W" unicode="W" horiz-adv-x="1235" 
d="M276 0l-245 1460h194l142 -999l170 999h161l172 -999l140 999h194l-243 -1460h-162l-181 1036l-182 -1036h-160z" />
    <glyph glyph-name="X" unicode="X" horiz-adv-x="784" 
d="M23 0l268 743l-254 717h196l160 -479l158 479h197l-254 -717l268 -743h-207l-162 508l-164 -508h-206z" />
    <glyph glyph-name="Y" unicode="Y" 
d="M494 621v-621h-203v621l-275 839h203l123 -407c7.33301 -24 15.666 -57.667 24.999 -101l26 -133c6.66699 48 10.334 73.333 11.001 76c5.33301 20.667 9.5 37.834 12.5 51.501s6.83301 30.167 11.5 49.5s10 37.666 16 54.999l123 409h205z" />
    <glyph glyph-name="Z" unicode="Z" horiz-adv-x="784" 
d="M18 0l474 1286h-404v174h672l-469 -1278h428v-182h-701z" />
    <glyph glyph-name="bracketleft" unicode="[" horiz-adv-x="559" 
d="M141 -383v1944h375v-160h-194v-1624h194v-160h-375z" />
    <glyph glyph-name="backslash" unicode="\" horiz-adv-x="567" 
d="M422 -190l-422 1669h143l422 -1669h-143z" />
    <glyph glyph-name="bracketright" unicode="]" horiz-adv-x="559" 
d="M43 -383v160h193v1624h-193v160h373v-1944h-373z" />
    <glyph glyph-name="asciicircum" unicode="^" horiz-adv-x="2048" 
d="M1104 1458l520 -557h-158l-442 438l-442 -438h-160l520 557h162z" />
    <glyph glyph-name="underscore" unicode="_" horiz-adv-x="1024" 
d="M1024 -365v-118h-1024v118h1024z" />
    <glyph glyph-name="grave" unicode="`" horiz-adv-x="1024" 
d="M631 1114h-105l-237 346h178z" />
    <glyph glyph-name="a" unicode="a" horiz-adv-x="801" 
d="M518 0l-0.000976562 95.998c-24 -39.333 -52 -68.166 -84 -86.499s-68.667 -27.5 -110 -27.5c-81.333 0 -143.666 43.333 -186.999 130s-65 213.334 -65 380.001c0 166 21 292 63 378s105 129 189 129c41.333 0 78 -9 110 -27s60 -46.333 84 -85v94h180v-981h-180z
M253.999 491.998c0 -125.333 10.499 -213.666 31.499 -264.999s55.5 -77 103.5 -77s82.5 26 103.5 78s31.5 140 31.5 264c0 125.333 -10.167 213.166 -30.5 263.499s-55.166 75.5 -104.499 75.5c-47.333 0 -82 -25.333 -104 -76c-10 -24.667 -17.667 -59 -23 -103
s-8 -97.333 -8 -160z" />
    <glyph glyph-name="b" unicode="b" horiz-adv-x="801" 
d="M276 489c0 -126 10.5 -214 31.5 -264s55.833 -75 104.5 -75c47.333 0 81.666 25.5 102.999 76.5s32 138.5 32 262.5c0 126.667 -10.167 215 -30.5 265s-55.166 75 -104.499 75c-48 0 -82.667 -25.667 -104 -77s-32 -139 -32 -263zM102 0l0.000976562 1550h181v-665
c24 38 51.833 66.167 83.5 84.5s68.5 27.5 110.5 27.5c86 0 149.5 -41.333 190.5 -124s61.5 -210.667 61.5 -384c0 -174 -20.333 -302 -61 -384s-104.334 -123 -191.001 -123c-40 0 -76 9 -108 27s-60.667 47 -86 87v-96h-181z" />
    <glyph glyph-name="c" unicode="c" horiz-adv-x="522" 
d="M496 16c-25.333 -12 -50.001 -20.999 -74.001 -26.999s-48.667 -9 -74 -9c-98 0 -170.667 41.333 -218 124s-71 211 -71 385c0 167.333 23.667 294.166 71 380.499s116.666 129.5 207.999 129.5c29.333 0 56.333 -3.33301 81 -10c26 -6 51.667 -15.333 77 -28v-173
c-15.333 15.333 -31.5 26.833 -48.5 34.5s-33.833 11.5 -50.5 11.5c-52 0 -90.833 -29.333 -116.5 -88s-38.5 -147 -38.5 -265c0 -108.667 12.5 -189.667 37.5 -243s62.833 -80 113.5 -80c18.667 0 36.334 3.5 53.001 10.5s33.334 17.833 50.001 32.5v-185z" />
    <glyph glyph-name="d" unicode="d" horiz-adv-x="801" 
d="M254 489c0 -126 10.167 -214 30.5 -264s55.166 -75 104.499 -75c47.333 0 81.666 25.5 102.999 76.5s32 138.5 32 262.5c0 126.667 -10.167 215 -30.5 265s-55.166 75 -104.499 75c-47.333 0 -81.666 -25.667 -102.999 -77s-32 -139 -32 -263zM518 0v95.998
c-24 -39.333 -52 -68.166 -84 -86.499s-68.667 -27.5 -110 -27.5c-85.333 0 -148.666 41.333 -189.999 124s-62 210.334 -62 383.001c0 174.667 20.167 303 60.5 385s104.166 123 191.499 123c41.333 0 78 -9 110 -27s60 -46.333 84 -85v665h180v-1550h-180z" />
    <glyph glyph-name="e" unicode="e" horiz-adv-x="741" 
d="M231 598h274.999v25c0 80.667 -10.667 139 -32 175s-55.666 54 -102.999 54c-46.667 0 -81.667 -21.5 -105 -64.5s-35 -106.167 -35 -189.5zM669.999 328v-12.9971c0 -102.667 -26 -183.834 -78 -243.501s-123 -89.5 -213 -89.5c-110 0 -190.667 40.667 -242 122
c-25.333 41.333 -44.333 94.166 -57 158.499s-19 142.166 -19 233.499c0 168.667 25.5 294.667 76.5 378s128.167 125 231.5 125c109.333 0 188.5 -38 237.5 -114s73.5 -199.667 73.5 -371v-57h-449v-29c0 -102.667 11.667 -177.167 35 -223.5s60.333 -69.5 111 -69.5
c39.333 0 70 16 92 48c10.667 16 19.167 36.5 25.5 61.5s9.5 52.5 9.5 82.5z" />
    <glyph glyph-name="f" unicode="f" horiz-adv-x="446" 
d="M125 0v842h-98v139h98v344c0 76.667 18.833 136.834 56.5 180.501s89.167 65.5 154.5 65.5c14.667 0 32 -2 52 -6c10.667 -2 20.834 -4.16699 30.501 -6.5s21.167 -5.83301 34.5 -10.5v-164l-37 10l-31 3c-26.667 0 -46.334 -7.83301 -59.001 -23.5
s-19 -40.834 -19 -75.501v-317h135v-139h-135v-842h-182z" />
    <glyph glyph-name="g" unicode="g" horiz-adv-x="801" 
d="M254 492c0 -126.667 10.167 -214.999 30.5 -264.999s55.166 -75 104.499 -75c47.333 0 82 25 104 75c10 25.333 17.667 59.833 23 103.5s8 97.5 8 161.5c0 125.333 -10.167 213.166 -30.5 263.499s-55.166 75.5 -104.499 75.5c-47.333 0 -82 -25.333 -104 -76
c-10 -24.667 -17.667 -59 -23 -103s-8 -97.333 -8 -160zM698 -22.999c0 -134 -24.834 -229.499 -74.501 -286.499s-132.5 -85.5 -248.5 -85.5c-95.333 0 -168.333 24.333 -219 73s-76 117.667 -76 207v31h171c0 -24.667 2.83301 -47.167 8.5 -67.5
s13.834 -37.5 24.501 -51.5c20 -26 51 -39 93 -39c50.667 0 86.834 15.667 108.501 47s32.5 82.666 32.5 153.999v139c-23.333 -37.333 -51.333 -65.666 -84 -84.999s-69.334 -29 -110.001 -29c-85.333 0 -148.666 41.333 -189.999 124s-62 210.667 -62 384
s20.167 301.166 60.5 383.499s104.166 123.5 191.499 123.5c41.333 0 78 -9 110 -27s60 -46.333 84 -85v94h180v-1004z" />
    <glyph glyph-name="h" unicode="h" horiz-adv-x="817" 
d="M113 0l0.000976562 1550h180v-667c19.333 34 46.666 60.667 81.999 80c18 9.33301 36.833 16.333 56.5 21s41.834 7 66.501 7c71.333 0 124.666 -20.167 159.999 -60.5s53 -101.166 53 -182.499v-748h-181v659c0 66.667 -8.66699 112 -26 136s-47.333 36 -90 36
c-40 0 -70.167 -12.333 -90.5 -37s-30.5 -62 -30.5 -112v-682h-180z" />
    <glyph glyph-name="i" unicode="i" horiz-adv-x="410" 
d="M90 1274c0 31.333 10.999 58.999 32.999 82.999c22.667 22.667 50 34 82 34s59 -11.167 81 -33.5s33 -50.166 33 -83.499c0 -32 -11.167 -59.167 -33.5 -81.5s-49.166 -33.5 -80.499 -33.5s-58.333 11 -81 33s-34 49.333 -34 82zM114.999 -0.000976562v981h180v-981h-180
z" />
    <glyph glyph-name="j" unicode="j" horiz-adv-x="410" 
d="M90 1274c0 31.333 10.999 58.999 32.999 82.999c22.667 22.667 50 34 82 34s59 -11.167 81 -33.5s33 -50.166 33 -83.499c0 -32 -11.167 -59.167 -33.5 -81.5s-49.166 -33.5 -80.499 -33.5s-58.333 11 -81 33s-34 49.333 -34 82zM114.999 -395.001v1376h180v-1376h-180z
" />
    <glyph glyph-name="k" unicode="k" horiz-adv-x="784" 
d="M119 0v1550h180v-1005l260 436h193l-271 -451l283 -530h-195l-270 516v-516h-180z" />
    <glyph glyph-name="l" unicode="l" horiz-adv-x="410" 
d="M115 0v1550h180v-1550h-180z" />
    <glyph glyph-name="m" unicode="m" horiz-adv-x="1229" 
d="M113 0l-0.00195312 980.999h178v-98c22 36 49.833 63 83.5 81s72.834 27 117.501 27s82.5 -9.33301 113.5 -28s59.167 -49 84.5 -91c25.333 39.333 56.333 69 93 89s78 30 124 30c71.333 0 124.666 -20.167 159.999 -60.5s53 -101.166 53 -182.499v-748h-180v659
c0 66.667 -8.66699 112 -26 136s-47.666 36 -90.999 36c-39.333 0 -69.333 -12.5 -90 -37.5s-31 -62.167 -31 -111.5v-682h-178v659c0 66 -8.66699 111.167 -26 135.5s-46.666 36.5 -87.999 36.5c-38 0 -67 -12.5 -87 -37.5s-30 -62.167 -30 -111.5v-682h-180z" />
    <glyph glyph-name="n" unicode="n" horiz-adv-x="817" 
d="M113 0l0.000976562 980.999h178v-98c24 36 53 63 87 81s74 27 120 27c71.333 0 124.666 -20.167 159.999 -60.5s53 -101.166 53 -182.499v-748h-181v659c0 66.667 -8.66699 112 -26 136s-47.333 36 -90 36c-40 0 -70.167 -12.333 -90.5 -37s-30.5 -62 -30.5 -112v-682
h-180z" />
    <glyph glyph-name="o" unicode="o" horiz-adv-x="784" 
d="M244 494c0 -121.333 11.8301 -209.5 35.4971 -264.5s60.834 -82.5 111.501 -82.5c50 0 87.5 28.333 112.5 85s37.5 144 37.5 262c0 118.667 -12.167 206 -36.5 262s-62.166 84 -113.499 84c-49.333 0 -86.166 -28 -110.499 -84s-36.5 -143.333 -36.5 -262zM60.9971 492
c0 164 28.167 289.501 84.5 376.501s138.166 130.5 245.499 130.5c106.667 0 188.334 -43.333 245.001 -130c27.333 -42.667 48.333 -95.667 63 -159s22 -136 22 -218c0 -166 -28.333 -292.5 -85 -379.5s-138.334 -130.5 -245.001 -130.5
c-107.333 0 -189.166 43.167 -245.499 129.5s-84.5 213.166 -84.5 380.499z" />
    <glyph glyph-name="p" unicode="p" horiz-adv-x="801" 
d="M276 492c0 -126.667 10.499 -214.999 31.499 -264.999s55.833 -75 104.5 -75c47.333 0 82 25 104 75c10 25.333 17.667 59.833 23 103.5s8 97.5 8 161.5c0 125.333 -10.167 213.166 -30.5 263.499s-55.166 75.5 -104.499 75.5c-48 0 -83 -25.333 -105 -76
c-10 -24.667 -17.667 -59 -23 -103s-8 -97.333 -8 -160zM101.999 -394.999l0.000976562 1376h181v-94c24 38 51.833 66.167 83.5 84.5s68.5 27.5 110.5 27.5c86 0 149.5 -41.333 190.5 -124s61.5 -210.334 61.5 -383.001c0 -174.667 -20.333 -303 -61 -385
s-104.334 -123 -191.001 -123c-40.667 0 -77 9.33301 -109 28s-60.333 47.334 -85 86.001v-493h-181z" />
    <glyph glyph-name="q" unicode="q" horiz-adv-x="801" 
d="M254 492c0 -126.667 10.167 -214.999 30.5 -264.999s55.166 -75 104.499 -75c47.333 0 82 25 104 75c10 25.333 17.667 59.833 23 103.5s8 97.5 8 161.5c0 125.333 -10.167 213.166 -30.5 263.499s-55.166 75.5 -104.499 75.5c-47.333 0 -82 -25.333 -104 -76
c-10 -24.667 -17.667 -59 -23 -103s-8 -97.333 -8 -160zM518 -394.999v490.999c-24 -39.333 -52 -68.166 -84 -86.499s-68.667 -27.5 -110 -27.5c-85.333 0 -149 41.333 -191 124c-19.333 40 -34.333 92.667 -45 158s-16 141.333 -16 228
c0 173.333 20.167 301.166 60.5 383.499s104.166 123.5 191.499 123.5c41.333 0 77.833 -9.16699 109.5 -27.5s59.834 -47.166 84.501 -86.499v96h180v-1376h-180z" />
    <glyph glyph-name="r" unicode="r" horiz-adv-x="555" 
d="M115 0l-0.00195312 981h174v-143c24 52.667 55.667 91.667 95 117c20.667 14 42.334 24.833 65.001 32.5s48.334 11.5 77.001 11.5v-190h-30c-70 0 -121.333 -17.5 -154 -52.5s-49 -89.833 -49 -164.5v-592h-178z" />
    <glyph glyph-name="s" unicode="s" horiz-adv-x="559" 
d="M57 207c23.333 -20.667 48.333 -37.3301 75 -49.9971c14 -5.33301 26.667 -9.33301 38 -12s24.333 -4 39 -4c38.667 0 69.834 11.167 93.501 33.5s35.5 51.5 35.5 87.5c0 41.333 -33 93.666 -99 156.999l-20 19c-64.667 60.667 -107.834 111 -129.501 151
s-32.5 84 -32.5 132c0 82 25.167 149.167 75.5 201.5s116.166 78.5 197.499 78.5c27.333 0 53.333 -3.16699 78 -9.5s50.334 -16.5 77.001 -30.5v-185c-18 21.333 -39 37.666 -63 48.999s-50.667 17 -80 17c-33.333 0 -60.833 -10.667 -82.5 -32s-32.5 -48.333 -32.5 -81
c0 -42.667 31.667 -93.334 95 -152.001l28 -26c59.333 -54 100.5 -103.333 123.5 -148s34.5 -93.667 34.5 -147c0 -82.667 -25.333 -149 -76 -199s-118.334 -75 -203.001 -75c-26.667 0 -54.167 3 -82.5 9s-58.166 15 -89.499 27v189z" />
    <glyph glyph-name="t" unicode="t" horiz-adv-x="449" 
d="M123 0v848h-98v133h98v266h180v-266h135v-133h-135v-848h-180z" />
    <glyph glyph-name="u" unicode="u" horiz-adv-x="817" 
d="M109 289v692.002h180v-702c0 -44.667 10 -78.834 30 -102.501s49.667 -35.5 89 -35.5c38 0 67.167 11.667 87.5 35s30.5 57.666 30.5 102.999v702h183v-692c0 -107.333 -23.833 -185.333 -71.5 -234s-124.167 -73 -229.5 -73c-104.667 0 -180.667 24.167 -228 72.5
s-71 126.5 -71 234.5z" />
    <glyph glyph-name="v" unicode="v" horiz-adv-x="672" 
d="M18 981h187.001l102 -512c5.33301 -25.333 10.666 -59.333 15.999 -102l13 -123l16 137c4.66699 35.333 9.66699 64 15 86l100 514h186l-245 -981h-144z" />
    <glyph glyph-name="w" unicode="w" horiz-adv-x="1010" 
d="M530 482l-12.999 87.999l-13 122l-13 -117c-2.66699 -22.667 -4.83398 -40.167 -6.50098 -52.5s-4.16699 -26.166 -7.5 -41.499l-88 -481h-127l-227 981h176l94 -503l13 -89l14 -120c0 23.333 1.33301 45.333 4 66c4.66699 26 7.66699 44.667 9 56l13 86l88 504h117
l90 -504c3.33301 -18 6.5 -40.667 9.5 -68l13.5 -121c0 -9.33301 0.666992 -15.666 2 -18.999l12 114c4 35.333 9 66.666 15 93.999l92 504h178l-230 -981h-127z" />
    <glyph glyph-name="x" unicode="x" horiz-adv-x="670" 
d="M240 520l-193 461h189l98 -283l100 283h187l-191 -461l225 -520h-190l-131 342l-129 -342h-191z" />
    <glyph glyph-name="y" unicode="y" horiz-adv-x="672" 
d="M27 981h186l115 -643l155 643h179l-396 -1376h-186l151 481z" />
    <glyph glyph-name="z" unicode="z" horiz-adv-x="676" 
d="M27 0l364 823h-342v158h600l-366 -819h338v-162h-594z" />
    <glyph glyph-name="braceleft" unicode="{" horiz-adv-x="1024" 
d="M858 1350l-22.998 1.00098l-22 1c-80 0 -134.5 -15.833 -163.5 -47.5s-43.5 -97.167 -43.5 -196.5v-242c0 -110.667 -14.333 -189.167 -43 -235.5s-80.334 -79.833 -155.001 -100.5c74 -20 125.5 -53.333 154.5 -100s43.5 -125 43.5 -235v-242
c0 -99.333 14.5 -164.5 43.5 -195.5s85.5 -46.5 169.5 -46.5h39v-125h-35c-65.333 0 -118.5 4 -159.5 12s-75.167 21.333 -102.5 40c-36 24 -62 57.333 -78 100c-14.667 44 -22 115 -22 213v244c0 101.333 -18.333 172.333 -55 213s-99.667 61 -189 61l-22 -1l-23 -1v127
l23 -1l22 -1c89.333 0 152.333 20.667 189 62s55 112.666 55 213.999v244c0 102 7.33301 173.667 22 215s40.667 74 78 98c27.333 17.333 61.166 30.333 101.499 39s93.833 13 160.5 13h35v-127z" />
    <glyph glyph-name="bar" unicode="|" horiz-adv-x="1024" 
d="M575 1565v-2048h-126v2048h126z" />
    <glyph glyph-name="braceright" unicode="}" horiz-adv-x="1024" 
d="M563 1112l-0.000976562 -244c0 -101.333 18.5 -172.666 55.5 -213.999s100.5 -62 190.5 -62l22 1l23 1v-127l-23 1l-22 1c-90 0 -153.5 -20.833 -190.5 -62.5s-55.5 -112.834 -55.5 -213.501v-242c0 -102.667 -7.16699 -174.834 -21.5 -216.501
s-39.833 -74.834 -76.5 -99.501c-25.333 -16.667 -57.5 -29 -96.5 -37s-92.833 -12 -161.5 -12h-41v125l23 -1l22 -1c79.333 0 133.666 15.833 162.999 47.5s44 97.834 44 198.501v240c0 110 14.333 188.167 43 234.5s80.334 79.833 155.001 100.5
c-73.333 20 -125 53.333 -155 100c-14 23.333 -24.667 54.5 -32 93.5s-11 86.5 -11 142.5v242c0 99.333 -14.667 164.833 -44 196.5s-85.666 47.5 -168.999 47.5h-39v125h35c66.667 0 120 -4.16699 160 -12.5s74.667 -21.5 104 -39.5c36 -22.667 61.333 -55.667 76 -99
s22 -114.666 22 -213.999z" />
    <glyph glyph-name="asciitilde" unicode="~" horiz-adv-x="1706" 
d="M1530 627c-66.667 -48 -132.334 -84 -197.001 -108s-128 -36 -190 -36c-27.333 0 -58 3.16699 -92 9.5s-67 14.833 -99 25.5l-34 11.5c-16.667 5.66699 -34.334 12.167 -53.001 19.5c-134 48 -234.667 72 -302 72c-56.667 0 -114.667 -12.667 -174 -38
c-30 -12 -62.833 -28.167 -98.5 -48.5s-73.167 -44.833 -112.5 -73.5v133c69.333 47.333 136.333 83.333 201 108s126.667 37 186 37c38 0 77.167 -4.16699 117.5 -12.5s98.166 -25.833 173.499 -52.5l44 -16c106.667 -38.667 188.334 -58 245.001 -58
s114.834 12.167 174.501 36.5s129.834 64.833 210.501 121.5v-131z" />
    <glyph glyph-name="nonbreakingspace" unicode="&#xa0;" 
 />
    <glyph glyph-name="exclamdown" unicode="&#xa1;" horiz-adv-x="557" 
d="M164 1366c0 30 11 56.333 33 79s49.333 34 82 34c30.667 0 57 -10.833 79 -32.5s33 -48.5 33 -80.5c0 -31.333 -10.833 -58.333 -32.5 -81s-48.167 -34 -79.5 -34s-58.333 11 -81 33s-34 49.333 -34 82zM188 1104h181v-1104h-181v1104z" />
    <glyph glyph-name="cent" unicode="&#xa2;" 
d="M592 252l-52.999 -22.0059c-6 -1.33301 -13.833 -3.16602 -23.5 -5.49902s-19.5 -4.16602 -29.5 -5.49902l-1 -192h-92v194c-81.333 12.667 -141.5 59.667 -180.5 141s-58.5 203 -58.5 365c0 79.333 4.66699 148 14 206s24.333 109 45 153
c39.333 83.333 99.333 133 180 149v192h92l1 -192c13.333 -2.66699 30 -7.66699 50 -15c16 -5.33301 34.667 -13.333 56 -24v-170c-15.333 14.667 -31.5 25.834 -48.5 33.501s-33.5 11.5 -49.5 11.5c-51.333 0 -90.5 -29.667 -117.5 -89s-40.5 -147.666 -40.5 -264.999
c0 -109.333 12.5 -190.666 37.5 -243.999s62.833 -80 113.5 -80c19.333 0 37.333 3.66699 54 11c7.33301 3.33301 15.666 7.83301 24.999 13.5s18 11.834 26 18.501v-184z" />
    <glyph glyph-name="sterling" unicode="&#xa3;" 
d="M33 61c15.333 62 38.001 108.333 68.001 139s67.333 46 112 46c10.667 0 18.667 -0.666992 24 -2c8.66699 0 17 -1.33301 25 -4c4 7.33301 7.83301 16 11.5 26s7.83398 25.667 12.501 47s7 45.333 7 72c0 26 -2.33301 52 -7 78c-2 14.667 -4.66699 28.667 -8 42
s-8 28.666 -14 45.999h-172v88h135c-23.333 55.333 -42.666 104 -57.999 146s-28.666 83.333 -39.999 124c-19.333 72 -29 136.333 -29 193c0 116.667 30.833 208.667 92.5 276s146.167 101 253.5 101c94 0 169.5 -27.333 226.5 -82s85.5 -127 85.5 -217v-9l-160 -69v14
c0 63.333 -12.833 111.666 -38.5 144.999s-64.167 50 -115.5 50c-47.333 0 -85.333 -18 -114 -54s-43 -85.667 -43 -149c0 -46 9.33301 -103 28 -171c8.66699 -33.333 21.5 -74.666 38.5 -123.999s38.5 -107.333 64.5 -174h186v-88h-165l13 -73c2 -16.667 3.33301 -29 4 -37
s1 -20.667 1 -38c0 -39.333 -4 -75.5 -12 -108.5s-20.333 -62.833 -37 -89.5l30 -17c44 -22.667 73.333 -34 88 -34c16 0 30.167 6.16699 42.5 18.5s21.5 30.5 27.5 54.5l160 -53c-23.333 -67.333 -51.333 -116.166 -84 -146.499s-74.334 -45.5 -125.001 -45.5
c-46.667 0 -100.834 15.667 -162.501 47s-101.834 47 -120.501 47c-16 0 -30.333 -5.33301 -43 -16s-24.334 -28.667 -35.001 -54z" />
    <glyph glyph-name="currency" unicode="&#xa4;" horiz-adv-x="1241" 
d="M936 887c0 86 -30.333 159.667 -91 221s-134.667 92 -222 92c-86.667 0 -160.667 -30.667 -222 -92s-92 -135 -92 -221c0 -86.667 30.5 -161 91.5 -223s135.167 -93 222.5 -93c85.333 0 158.833 31.167 220.5 93.5s92.5 136.5 92.5 222.5zM365 1212
c38.667 29.333 79.332 51.832 121.999 67.499s87.334 23.5 134.001 23.5c48.667 0 93.667 -7.66699 135 -23c43.333 -14 85 -36.667 125 -68l204 207l72 -73l-205 -205c27.333 -37.333 48.5 -77.833 63.5 -121.5s22.5 -88.5 22.5 -134.5
c0 -47.333 -7.16699 -92.5 -21.5 -135.5s-35.833 -83.167 -64.5 -120.5l205 -205l-72 -74l-204 207c-38.667 -29.333 -79.667 -51.333 -123 -66s-89 -22 -137 -22s-93 7 -135 21s-82.333 36.333 -121 67l-207 -207l-72 74l207 205c-29.333 38.667 -51.333 79.667 -66 123
s-22 87.666 -22 132.999c0 46.667 7.16699 91.334 21.5 134.001s36.5 83.334 66.5 122.001l-207 205l72 73z" />
    <glyph glyph-name="yen" unicode="&#xa5;" horiz-adv-x="834" 
d="M625 975h198.001v-76h-225l-57 -172h282v-76h-309l-8 -30v-621h-178v621l-11 30h-305v76h281l-57 172h-224v76h199l-160 485h174l156 -502c3.33301 -10.667 7 -25 11 -43s7.83301 -36.167 11.5 -54.5s6.16699 -33.333 7.5 -45s3.66602 -34.167 6.99902 -67.5
c0 14.667 1.16699 31.167 3.5 49.5s5.5 37.166 9.5 56.499c6 36.667 15.333 74.334 28 113.001l151 493h172z" />
    <glyph glyph-name="brokenbar" unicode="&#xa6;" horiz-adv-x="1024" 
d="M575 408v-758h-126v758h126zM575 1432v-758h-126v758h126z" />
    <glyph glyph-name="section" unicode="&#xa7;" horiz-adv-x="780" 
d="M260 580c0 -66 12.166 -117.667 36.499 -155s57.833 -56 100.5 -56c44 0 76.5 17.333 97.5 52s31.5 88.334 31.5 161.001c0 61.333 -11.667 109.666 -35 144.999s-54.666 53 -93.999 53c-40.667 0 -74 -18 -100 -54c-24.667 -37.333 -37 -86 -37 -146zM95.999 -6
l171.999 0.00195312v-10c0 -64.667 9.66699 -113.334 29 -146.001s48 -49 86 -49c37.333 0 66.5 14.167 87.5 42.5s31.5 68.166 31.5 119.499c0 44 -10 81 -30 111s-69.333 70.667 -148 122c-103.333 66 -171.666 125.667 -204.999 179c-15.333 26.667 -27.333 57 -36 91
s-13 71 -13 111c0 78.667 15.5 146.834 46.5 204.501s76.833 103.5 137.5 137.5c-46 32 -80.333 70.667 -103 116c-10.667 22 -19 46.167 -25 72.5s-9 53.833 -9 82.5c0 90 25.667 162.667 77 218s119 83 203 83c89.333 0 159.833 -28.833 211.5 -86.5
s77.5 -138.167 77.5 -241.5l-1 -19l-1 -20h-172v10c0 65.333 -9.16699 114.5 -27.5 147.5s-45.5 49.5 -81.5 49.5c-34.667 0 -61.667 -11.5 -81 -34.5s-29 -55.167 -29 -96.5c0 -78 51.667 -149.667 155 -215l60 -39c74 -50 127.333 -104.667 160 -164s49 -129 49 -209
c0 -79.333 -15 -145 -45 -197s-76.667 -92 -140 -120c50.667 -44 88 -88.667 112 -134s36 -95.666 36 -150.999c0 -100.667 -26.333 -180.834 -79 -240.501s-124.667 -89.5 -216 -89.5c-96 0 -168.167 29.167 -216.5 87.5s-72.5 146.166 -72.5 263.499v14z" />
    <glyph glyph-name="dieresis" unicode="&#xa8;" horiz-adv-x="1024" 
d="M252 1274c0 29.333 10.5 54.666 31.5 75.999s45.833 32 74.5 32c30 0 55.667 -10.667 77 -32s32 -46.666 32 -75.999s-10.833 -54.5 -32.5 -75.5s-47.167 -31.5 -76.5 -31.5s-54.333 10.333 -75 31s-31 46 -31 76zM555 1274c0 29.333 10.502 54.666 31.502 75.999
s46.167 32 75.5 32s54.666 -10.667 75.999 -32s32 -46.666 32 -75.999s-10.833 -54.5 -32.5 -75.5s-46.834 -31.5 -75.501 -31.5c-30 0 -55.333 10.333 -76 31s-31 46 -31 76z" />
    <glyph glyph-name="copyright" unicode="&#xa9;" horiz-adv-x="1706" 
d="M1065 911c-10 51.333 -33.5 91.498 -70.5 120.498s-83.167 43.5 -138.5 43.5c-78 0 -138.833 -30.833 -182.5 -92.5s-65.5 -148.167 -65.5 -259.5c0 -106 22 -189.833 66 -251.5s104.667 -92.5 182 -92.5c57.333 0 105.5 15.833 144.5 47.5s63.833 76.5 74.5 134.5h129
c0 -41.333 -9.33301 -78.833 -28 -112.5s-45.667 -65.167 -81 -94.5c-65.333 -53.333 -147 -80 -245 -80c-116.667 0 -210 40.333 -280 121s-105 189.334 -105 326.001c0 138 35.833 248.667 107.5 332s167.5 125 287.5 125c90 0 166.167 -24.667 228.5 -74
s97.5 -113.666 105.5 -192.999h-129zM1501 724.998c0 86.667 -16.168 169.67 -48.501 249.003s-78.666 149.166 -138.999 209.499s-130 106.833 -209 139.5s-163.167 49 -252.5 49c-87.333 0 -169.333 -15.667 -246 -47s-145.667 -77.833 -207 -139.5
s-108.666 -132.834 -141.999 -213.501s-50 -163 -50 -247c0 -84.667 16.167 -165.834 48.5 -243.501s79.666 -147.667 141.999 -210s132.5 -109.833 210.5 -142.5s159.333 -49 244 -49c86.667 0 169.5 16.5 248.5 49.5s149.5 80 211.5 141s109 130 141 207
s48 159.5 48 247.5zM851.999 1460c100.667 0 195.501 -18.167 284.501 -54.5s168.833 -89.833 239.5 -160.5c68.667 -68.667 121 -147.834 157 -237.501s54 -183.834 54 -282.501c0 -99.333 -18 -193.166 -54 -281.499s-89.167 -167 -159.5 -236s-151 -122.5 -242 -160.5
s-184.167 -57 -279.5 -57c-97.333 0 -189.833 18.333 -277.5 55s-166.834 90.334 -237.501 161.001s-125 150.334 -163 239.001c-18 44.667 -31.667 90.167 -41 136.5s-14 94.166 -14 143.499c0 97.333 18.833 190.833 56.5 280.5s91.834 170.167 162.501 241.5
c66.667 68 144.667 120.5 234 157.5s182.666 55.5 279.999 55.5z" />
    <glyph glyph-name="ordfeminine" unicode="&#xaa;" horiz-adv-x="600" 
d="M389 774l-0.000976562 68c-17.333 -26.667 -38.166 -46.667 -62.499 -60s-51.833 -20 -82.5 -20c-61.333 0 -108.5 30.167 -141.5 90.5s-49.5 148.833 -49.5 265.5c0 116 16.167 204.5 48.5 265.5s79.833 91.5 142.5 91.5c17.333 0 32 -1.33301 44 -4s24.667 -8 38 -16
c24 -12.667 45 -32.667 63 -60v65h135v-686h-135zM189.999 1118c0 -86 8 -147.334 24 -184.001s42.333 -55 79 -55c35.333 0 60.833 18.167 76.5 54.5s23.5 97.833 23.5 184.5c0 46.667 -1.66699 84.334 -5 113.001s-9.33301 52.667 -18 72c-15.333 35.333 -41 53 -77 53
c-35.333 0 -61.333 -17.833 -78 -53.5s-25 -97.167 -25 -184.5z" />
    <glyph glyph-name="guillemotleft" unicode="&#xab;" horiz-adv-x="721" 
d="M39 489l235 437l115 -64l-205 -373l205 -372l-115 -62zM332 489l237 437l113 -64l-203 -373l203 -372l-113 -62z" />
    <glyph glyph-name="logicalnot" unicode="&#xac;" horiz-adv-x="1706" 
d="M1452 858v-502h-115v385h-1083v117h1198z" />
    <glyph glyph-name="minus" unicode="&#xad;" horiz-adv-x="559" 
d="M76 410v161h407v-161h-407z" />
    <glyph glyph-name="registered" unicode="&#xae;" horiz-adv-x="1706" 
d="M846 1065l-144.001 0.000976562v-291h148c81.333 0 139.5 11.167 174.5 33.5s52.5 58.166 52.5 107.499c0 52 -18.167 90 -54.5 114s-95.166 36 -176.499 36zM871.999 1157c118 0 206 -19.002 264 -57.002s87 -96 87 -174c0 -59.333 -17.5 -108.666 -52.5 -147.999
s-83.167 -64.666 -144.5 -75.999l188 -385h-157l-176 365h-179v-365h-141v840h311zM1501 720.999c0 87.333 -16 170.832 -48 250.499s-78 149.834 -138 210.501c-62.667 62.667 -133.5 110 -212.5 142s-162.5 48 -250.5 48c-89.333 0 -172.166 -15.667 -248.499 -47
s-143.833 -77 -202.5 -137c-62 -63.333 -109.833 -134.833 -143.5 -214.5s-50.5 -162.5 -50.5 -248.5c0 -84.667 16.167 -165.834 48.5 -243.501s79.5 -148.167 141.5 -211.5c60 -61.333 129.5 -108.333 208.5 -141s160.5 -49 244.5 -49c86.667 0 169.667 16 249 48
s150.666 79.333 213.999 142c60 60 106.333 128.667 139 206c15.333 37.333 27.333 76.833 36 118.5s13 83.834 13 126.501zM851.999 1460c100.667 0 195.666 -18.501 284.999 -55.501s168.666 -90.333 237.999 -160s122 -149 158 -238s54 -182.833 54 -281.5
c0 -100.667 -18.167 -195 -54.5 -283s-89.666 -166.167 -159.999 -234.5s-151.166 -122.166 -242.499 -161.499c-44.667 -18.667 -89.834 -32.667 -135.501 -42s-93.167 -14 -142.5 -14c-97.333 0 -190 18.5 -278 55.5s-168 91.5 -240 163.5
c-69.333 68.667 -122.5 147.667 -159.5 237s-55.5 182.333 -55.5 279c0 98 19 192 57 282s92.667 170.667 164 242c66.667 68 143.834 120.167 231.501 156.5s181.167 54.5 280.5 54.5z" />
    <glyph glyph-name="macron" unicode="&#xaf;" horiz-adv-x="1024" 
d="M291 1202v148h442v-148h-442z" />
    <glyph glyph-name="degree" unicode="&#xb0;" horiz-adv-x="674" 
d="M539 1171c0 56 -19.332 103.501 -57.999 142.501s-86.334 58.5 -143.001 58.5s-104.667 -19.333 -144 -58s-59 -86.334 -59 -143.001c0 -56 20 -103.667 60 -143s87.667 -59 143 -59c56 0 103.5 19.667 142.5 59s58.5 87 58.5 143zM338.001 1454
c78 0 144.668 -27.665 200.001 -82.998s83 -122 83 -200c0 -76.667 -27.833 -142.834 -83.5 -198.501s-122.834 -83.5 -201.501 -83.5c-78 0 -144.333 27.167 -199 81.5s-82 121.166 -82 200.499s27.667 146.333 83 201s122 82 200 82z" />
    <glyph glyph-name="plusminus" unicode="&#xb1;" horiz-adv-x="1706" 
d="M1452 158v-117h-1198v117h1198zM913 1180v-344h539v-117h-539v-344h-118v344h-541v117h541v344h118z" />
    <glyph glyph-name="twosuperior" unicode="&#xb2;" horiz-adv-x="520" 
d="M23 584l256.002 465c11.333 19.333 20.666 37.5 27.999 54.5s14.666 35.833 21.999 56.5c11.333 35.333 17 67 17 95c0 38 -7.33301 66.333 -22 85s-36.667 28 -66 28c-31.333 0 -55 -12.333 -71 -37c-14 -24 -21 -65.667 -21 -125v-30h-121l-2 16v27
c0 84 18.5 146.833 55.5 188.5s92.167 62.5 165.5 62.5c66 0 118.333 -19 157 -57s58 -90.667 58 -158c0 -39.333 -7.16699 -80 -21.5 -122s-39.833 -92.667 -76.5 -152l-172 -285h250v-112h-436z" />
    <glyph glyph-name="threesuperior" unicode="&#xb3;" horiz-adv-x="520" 
d="M29 813l111.998 0.00390625v-22c0 -37.333 8.5 -65.5 25.5 -84.5s42.167 -28.5 75.5 -28.5c34 0 59.667 12 77 36c16.667 25.333 25 63.666 25 114.999c0 66.667 -10.833 110.667 -32.5 132s-64.167 32 -127.5 32h-18v97h41c49.333 0 82.833 10.167 100.5 30.5
s26.5 62.5 26.5 126.5c0 42.667 -6.83301 74.5 -20.5 95.5s-34.167 31.5 -61.5 31.5c-32 0 -55.667 -11 -71 -33c-7.33301 -11.333 -13.166 -26.833 -17.499 -46.5s-6.5 -42.834 -6.5 -69.501h-112v37c0 70.667 16.333 123 49 157s82.667 51 150 51
c72 0 125.833 -19.333 161.5 -58s53.5 -98.334 53.5 -179.001c0 -57.333 -9.16699 -101 -27.5 -131s-47.5 -50 -87.5 -60c45.333 -6 77.833 -24.333 97.5 -55s29.5 -78.334 29.5 -143.001c0 -94 -18.833 -162.667 -56.5 -206s-98.167 -65 -181.5 -65
c-67.333 0 -118.166 18.167 -152.499 54.5s-51.5 90.833 -51.5 163.5v22z" />
    <glyph glyph-name="acute" unicode="&#xb4;" horiz-adv-x="1024" 
d="M393 1114l164 346h178l-237 -346h-105z" />
    <glyph glyph-name="mu" unicode="&#xb5;" horiz-adv-x="1128" 
d="M362 1069l-126.001 -595.001l-12 -67l-3 -71c0 -72 19 -127.833 57 -167.5s91.333 -59.5 160 -59.5c83.333 0 152.333 33.333 207 100s97.667 169.667 129 309l121 551h156l-162 -754l-18 -84l-5 -51c0 -20.667 6 -37 18 -49c12.667 -10.667 30.667 -16 54 -16h17
c8 0 14 0.666992 18 2l-27 -125l-44 -7l-48 -3c-46.667 0 -81.667 11.667 -105 35c-21.333 22.667 -34.666 60 -39.999 112c-26.667 -45.333 -65.5 -81.166 -116.5 -107.499s-108.5 -39.5 -172.5 -39.5c-58.667 0 -109.5 11.167 -152.5 33.5s-79.5 56.833 -109.5 103.5
l-113 -545h-156l316 1495h157z" />
    <glyph glyph-name="paragraph" unicode="&#xb6;" horiz-adv-x="1024" 
d="M948 1401l-125.001 -0.000976562v-1401h-94v1401h-182v-1401h-96v782c-56 0 -106.833 8.83301 -152.5 26.5s-86.167 42.834 -121.5 75.501c-67.333 63.333 -101 145.333 -101 246c0 104 35.833 188.167 107.5 252.5s166.834 96.5 285.501 96.5h479v-78z" />
    <glyph glyph-name="cedilla" unicode="&#xb8;" horiz-adv-x="1024" 
d="M283 -434l0.00195312 119.005c17.333 -6 36 -11.833 56 -17.5s38.333 -10.334 55 -14.001s32.667 -6.5 48 -8.5s29.666 -3 42.999 -3c30 0 52.5 6.16699 67.5 18.5s22.5 31.166 22.5 56.499c0 28 -9.5 48.333 -28.5 61s-48.167 19 -87.5 19l-17 -1l-18 -1v205h86v-94h12
c32 0 59.333 -3.66699 82 -11s42.667 -19.333 60 -36c32.667 -32.667 49 -79.334 49 -140.001c0 -62.667 -17.833 -111 -53.5 -145s-86.834 -51 -153.501 -51c-32.667 0 -67 3.66699 -103 11c-18 3.33301 -37.5 7.66602 -58.5 12.999s-41.5 11.666 -61.5 18.999z" />
    <glyph glyph-name="onesuperior" unicode="&#xb9;" horiz-adv-x="520" 
d="M213 584v770h-119v106h240v-876h-121z" />
    <glyph glyph-name="ordmasculine" unicode="&#xba;" horiz-adv-x="588" 
d="M182 1120c0 -83.333 9 -144.667 27 -184s46 -59 84 -59s66.333 19.333 85 58c9.33301 20 16.333 44.833 21 74.5s7 66.5 7 110.5c0 84.667 -9.16699 146.167 -27.5 184.5s-46.833 57.5 -85.5 57.5c-38 0 -66 -19.167 -84 -57.5s-27 -99.833 -27 -184.5zM47 1118
c0 115.333 21.167 203.667 63.5 265s103.166 92 182.499 92c80 0 141.333 -30.5 184 -91.5s64 -149.5 64 -265.5s-21.333 -204.333 -64 -265s-104 -91 -184 -91c-79.333 0 -140.166 30.167 -182.499 90.5s-63.5 148.833 -63.5 265.5z" />
    <glyph glyph-name="guillemotright" unicode="&#xbb;" horiz-adv-x="721" 
d="M682 489l-236 -434l-114 62l205 372l-205 373l114 64zM389 489l-237 -434l-113 62l203 372l-203 373l113 64z" />
    <glyph glyph-name="onequarter" unicode="&#xbc;" horiz-adv-x="1335" 
d="M1116 313v324l-164 -324h164zM1114 0v223h-248v105l258 489h107v-504h65v-90h-65v-223h-117zM156 -18l886 1497h138l-887 -1497h-137zM203 641v719h-113v98h227v-817h-114z" />
    <glyph glyph-name="onehalf" unicode="&#xbd;" horiz-adv-x="1335" 
d="M860 0l246.001 434c20 35.333 35.667 70 47 104c5.33301 17.333 9.33301 32.833 12 46.5s4 27.834 4 42.501c0 35.333 -6.83301 61.833 -20.5 79.5s-34.834 26.5 -63.501 26.5c-29.333 0 -51.333 -11.833 -66 -35.5s-22 -62.834 -22 -117.501v-29h-114l-2 16v27
c0 78 17.667 136.333 53 175s88 58 158 58c62 0 111.5 -17.833 148.5 -53.5s55.5 -84.5 55.5 -146.5c0 -35.333 -6.83301 -72.833 -20.5 -112.5s-37.5 -87.5 -71.5 -143.5l-164 -267h238v-104h-418zM156.001 -18l886 1497h138l-887 -1497h-137zM203.001 641v719h-113v98h227
v-817h-114z" />
    <glyph glyph-name="threequarters" unicode="&#xbe;" horiz-adv-x="1335" 
d="M1116 313v324l-164 -324h164zM1114 0v223h-248v105l258 489h107v-504h65v-90h-65v-223h-117zM156 -18l886 1497h138l-887 -1497h-137zM27 854l108 0.00195312v-18c0 -36 8 -62.833 24 -80.5s40 -26.5 72 -26.5c34 0 59 11.167 75 33.5s24 58.166 24 107.499
c0 62 -10.333 103.167 -31 123.5s-61.667 30.5 -123 30.5h-18v90c6.66699 0 12 -0.666992 16 -2h23c48 0 80.333 9.66699 97 29s25 59 25 119c0 41.333 -6.16699 71.666 -18.5 90.999s-32.5 29 -60.5 29c-30 0 -52.667 -11 -68 -33
c-7.33301 -11.333 -13 -25.666 -17 -42.999s-6 -39 -6 -65h-106v35c0 65.333 15.833 114 47.5 146s79.167 48 142.5 48c68.667 0 120 -18.167 154 -54.5s51 -91.833 51 -166.5c0 -52 -9 -92.5 -27 -121.5s-45.667 -47.833 -83 -56.5c44 -6 75.5 -23.5 94.5 -52.5
s28.5 -73.5 28.5 -133.5c0 -88.667 -18.167 -152.834 -54.5 -192.501s-94.833 -59.5 -175.5 -59.5c-64.667 0 -113.167 16.833 -145.5 50.5s-48.5 85.167 -48.5 154.5v18z" />
    <glyph glyph-name="questiondown" unicode="&#xbf;" horiz-adv-x="561" 
d="M412 1364c0 -30.667 -11.167 -57.167 -33.5 -79.5s-49.5 -33.5 -81.5 -33.5c-32.667 0 -59.667 11 -81 33s-32 48.667 -32 80c0 32 11.167 59.167 33.5 81.5s48.833 33.5 79.5 33.5c32 0 59.167 -11.333 81.5 -34s33.5 -49.667 33.5 -81zM381 1098l0.000976562 -431.999
h-6c-68 0 -114.333 -15.667 -139 -47s-37 -110 -37 -236c0 -96 6.5 -161.333 19.5 -196s35.833 -52 68.5 -52c32 0 55.667 14 71 42c14 28 21 77.667 21 149v20h166v-31c0 -120.667 -20.167 -206.667 -60.5 -258s-107.5 -77 -201.5 -77s-160.167 24.167 -198.5 72.5
s-57.5 135.166 -57.5 260.499c0 196 13 323 39 381c13.333 30 31.666 52.667 54.999 68s52 23 86 23v313h174z" />
    <glyph glyph-name="Agrave" unicode="&#xc0;" horiz-adv-x="901" 
d="M451 1083l-132 -632h263zM16 0l342 1460h185l342 -1460h-199l-70 287h-333l-68 -287h-199zM570 1593h-105l-237 346h178z" />
    <glyph glyph-name="Aacute" unicode="&#xc1;" horiz-adv-x="901" 
d="M451 1083l-132 -632h263zM16 0l342 1460h185l342 -1460h-199l-70 287h-333l-68 -287h-199zM332 1593l164 346h178l-237 -346h-105z" />
    <glyph glyph-name="Acircumflex" unicode="&#xc2;" horiz-adv-x="901" 
d="M451 1083l-132 -632h263zM16 0l342 1460h185l342 -1460h-199l-70 287h-333l-68 -287h-199zM213 1591l152 348h172l152 -348h-105l-133 211l-133 -211h-105z" />
    <glyph glyph-name="Atilde" unicode="&#xc3;" horiz-adv-x="901" 
d="M451 1083l-132 -632h263zM16 0l342 1460h185l342 -1460h-199l-70 287h-333l-68 -287h-199zM691 1876c-12 -77.333 -30.834 -134.334 -56.501 -171.001s-59.5 -55 -101.5 -55l-26 3c-6.66699 0.666992 -11.5 1.33398 -14.5 2.00098s-8.16699 2.66699 -15.5 6l-66 24l-26 7
l-24 4c-18 0 -32.667 -5.66699 -44 -17c-8.66699 -8.66699 -17.334 -25.667 -26.001 -51h-80c10 72 27.833 126.5 53.5 163.5s59.167 55.5 100.5 55.5c8.66699 0 18.334 -1.33301 29.001 -4l38 -10l70 -25l20 -5l17 -1c18.667 0 33.834 5.83301 45.501 17.5
s20.5 30.5 26.5 56.5h80z" />
    <glyph glyph-name="Adieresis" unicode="&#xc4;" horiz-adv-x="901" 
d="M451 1083l-132 -632h263zM16 0l342 1460h185l342 -1460h-199l-70 287h-333l-68 -287h-199zM191 1753c0 29.333 10.5 54.666 31.5 75.999s45.833 32 74.5 32c30 0 55.667 -10.667 77 -32s32 -46.666 32 -75.999s-10.833 -54.5 -32.5 -75.5s-47.167 -31.5 -76.5 -31.5
s-54.333 10.333 -75 31s-31 46 -31 76zM494 1753c0 29.333 10.502 54.666 31.502 75.999s46.167 32 75.5 32s54.666 -10.667 75.999 -32s32 -46.666 32 -75.999s-10.833 -54.5 -32.5 -75.5s-46.834 -31.5 -75.501 -31.5c-30 0 -55.333 10.333 -76 31s-31 46 -31 76z" />
    <glyph glyph-name="Aring" unicode="&#xc5;" horiz-adv-x="901" 
d="M227 1747c0 62 21.667 114.667 65 158s96.333 65 159 65s115.834 -21.667 159.501 -65s65.5 -96 65.5 -158c0 -61.333 -21.833 -113.833 -65.5 -157.5s-96.834 -65.5 -159.501 -65.5s-115.667 22 -159 66s-65 96.333 -65 157zM344 1747
c0 -30 10.6689 -55.666 32.002 -76.999s47 -32 77 -32c29.333 0 54.666 10.667 75.999 32s32 47 32 77s-10.333 55.5 -31 76.5s-46.334 31.5 -77.001 31.5s-56.5 -10.333 -77.5 -31s-31.5 -46.334 -31.5 -77.001zM451.002 1083l-132 -632h263zM16.002 0.000976562l342 1460
h185l342 -1460h-199l-70 287h-333l-68 -287h-199z" />
    <glyph glyph-name="AE" unicode="&#xc6;" horiz-adv-x="1202" 
d="M463 1141l-144 -690h277zM16 0l349 1460h548l39 -176h-344l90 -434h312l32 -174h-309l98 -490h345l34 -186h-524l-59 287h-344l-68 -287h-199z" />
    <glyph glyph-name="Ccedilla" unicode="&#xc7;" horiz-adv-x="780" 
d="M407 -2c-88.667 26 -159.331 81.6748 -211.998 167.008c-74 122 -111 306 -111 552c0 250 39.5 439.5 118.5 568.5s195.833 193.5 350.5 193.5c35.333 0 67.333 -3.33301 96 -10c31.333 -6 60 -15.667 86 -29v-187c-26.667 13.333 -53.667 23.666 -81 30.999
c-10 2.66699 -22 5 -36 7s-26 3 -36 3c-103.333 0 -179.333 -45.833 -228 -137.5s-73 -237.5 -73 -437.5c0 -186.667 22.833 -324.834 68.5 -414.501s116.167 -134.5 211.5 -134.5c27.333 0 54.833 4.33301 82.5 13s58.167 22.667 91.5 42v-192
c-16 -8.66699 -31.5 -15.834 -46.5 -21.501s-32.5 -11.167 -52.5 -16.5c-36 -8.66699 -71.333 -13 -106 -13l-37 1v-57h12c32 0 59.333 -3.66699 82 -11s42.667 -19.333 60 -36c32.667 -32.667 49 -79.334 49 -140.001c0 -62.667 -17.833 -111 -53.5 -145
s-86.834 -51 -153.501 -51c-32.667 0 -67 3.66699 -103 11c-18 3.33301 -37.5 7.66602 -58.5 12.999s-41.5 11.666 -61.5 18.999v119c17.333 -6 36 -11.833 56 -17.5s38.333 -10.334 55 -14.001s32.667 -6.5 48 -8.5s29.666 -3 42.999 -3c30 0 52.5 6.16699 67.5 18.5
s22.5 31.166 22.5 56.499c0 28 -9.5 48.333 -28.5 61s-48.167 19 -87.5 19l-17 -1l-18 -1v183z" />
    <glyph glyph-name="Egrave" unicode="&#xc8;" horiz-adv-x="786" 
d="M125 0v1460h584v-176h-387v-434h354v-174h-354v-494h387v-182h-584zM533 1593h-105l-237 346h178z" />
    <glyph glyph-name="Eacute" unicode="&#xc9;" horiz-adv-x="786" 
d="M125 0v1460h584v-176h-387v-434h354v-174h-354v-494h387v-182h-584zM295 1593l164 346h178l-237 -346h-105z" />
    <glyph glyph-name="Ecircumflex" unicode="&#xca;" horiz-adv-x="786" 
d="M125 0v1460h584v-176h-387v-434h354v-174h-354v-494h387v-182h-584zM176 1591l152 348h172l152 -348h-105l-133 211l-133 -211h-105z" />
    <glyph glyph-name="Edieresis" unicode="&#xcb;" horiz-adv-x="786" 
d="M125 0v1460h584v-176h-387v-434h354v-174h-354v-494h387v-182h-584zM154 1753c0 29.333 10.5 54.666 31.5 75.999s45.833 32 74.5 32c30 0 55.667 -10.667 77 -32s32 -46.666 32 -75.999s-10.833 -54.5 -32.5 -75.5s-47.167 -31.5 -76.5 -31.5s-54.333 10.333 -75 31
s-31 46 -31 76zM457 1753c0 29.333 10.502 54.666 31.502 75.999s46.167 32 75.5 32s54.666 -10.667 75.999 -32s32 -46.666 32 -75.999s-10.833 -54.5 -32.5 -75.5s-46.834 -31.5 -75.501 -31.5c-30 0 -55.333 10.333 -76 31s-31 46 -31 76z" />
    <glyph glyph-name="Igrave" unicode="&#xcc;" horiz-adv-x="461" 
d="M131 0v1460h197v-1460h-197zM350 1593h-105l-237 346h178z" />
    <glyph glyph-name="Iacute" unicode="&#xcd;" horiz-adv-x="461" 
d="M131 0v1460h197v-1460h-197zM112 1593l164 346h178l-237 -346h-105z" />
    <glyph glyph-name="Icircumflex" unicode="&#xce;" horiz-adv-x="461" 
d="M131 0v1460h197v-1460h-197zM-7 1591l152 348h172l152 -348h-105l-133 211l-133 -211h-105z" />
    <glyph glyph-name="Idieresis" unicode="&#xcf;" horiz-adv-x="461" 
d="M131 0v1460h197v-1460h-197zM-29 1753c0 29.333 10.5 54.666 31.5 75.999s45.833 32 74.5 32c30 0 55.667 -10.667 77 -32s32 -46.666 32 -75.999s-10.833 -54.5 -32.5 -75.5s-47.167 -31.5 -76.5 -31.5s-54.333 10.333 -75 31s-31 46 -31 76zM274 1753
c0 29.333 10.502 54.666 31.502 75.999s46.167 32 75.5 32s54.666 -10.667 75.999 -32s32 -46.666 32 -75.999s-10.833 -54.5 -32.5 -75.5s-46.834 -31.5 -75.501 -31.5c-30 0 -55.333 10.333 -76 31s-31 46 -31 76z" />
    <glyph glyph-name="Eth" unicode="&#xd0;" horiz-adv-x="1004" 
d="M924 784l4.00195 -90l2 -84c0 -213.333 -34.833 -371.333 -104.5 -474s-176.834 -154 -321.501 -154c-148.667 0 -256.5 58.333 -323.5 175s-100.5 307.334 -100.5 572.001c0 269.333 33.5 461.666 100.5 576.999s176.833 173 329.5 173
c108.667 0 195.667 -25.333 261 -76s110.666 -128 135.999 -232l-174 -84c-14 71.333 -39.333 124.333 -76 159s-85 52 -145 52c-84.667 0 -144.667 -41.167 -180 -123.5s-53 -229.5 -53 -441.5s17.5 -359.167 52.5 -441.5s95.167 -123.5 180.5 -123.5
c76 0 133.167 31.5 171.5 94.5s57.5 156.5 57.5 280.5l-1 42l-1 27h-209v172h394zM264.002 1913l97.002 -0.99707c0 -23.333 3.16699 -44.333 9.5 -63s15.5 -34.334 27.5 -47.001c22 -23.333 56.667 -35 104 -35s82.333 11.667 105 35c11.333 12 20.166 27.167 26.499 45.5
s9.5 39.833 9.5 64.5l97 1c0 -46.667 -5.83301 -88.667 -17.5 -126s-27.834 -69 -48.501 -95c-38 -48 -95.333 -72 -172 -72c-74.667 0 -132 24 -172 72c-20 25.333 -36 56.666 -48 93.999s-18 79.666 -18 126.999z" />
    <glyph glyph-name="Ntilde" unicode="&#xd1;" horiz-adv-x="1014" 
d="M129 0v1460h182l387 -1014v1014h187v-1460h-185l-385 1022v-1022h-186zM752 1876c-12 -77.333 -30.834 -134.334 -56.501 -171.001s-59.5 -55 -101.5 -55l-26 3c-6.66699 0.666992 -11.5 1.33398 -14.5 2.00098s-8.16699 2.66699 -15.5 6l-66 24l-26 7l-24 4
c-18 0 -32.667 -5.66699 -44 -17c-8.66699 -8.66699 -17.334 -25.667 -26.001 -51h-80c10 72 27.833 126.5 53.5 163.5s59.167 55.5 100.5 55.5c8.66699 0 18.334 -1.33301 29.001 -4l38 -10l70 -25l20 -5l17 -1c18.667 0 33.834 5.83301 45.501 17.5s20.5 30.5 26.5 56.5
h80z" />
    <glyph glyph-name="Ograve" unicode="&#xd2;" horiz-adv-x="1006" 
d="M287 733c0 -208 16.832 -354.166 50.499 -438.499s89.834 -126.5 168.501 -126.5c78 0 133 40.167 165 120.5s48 228.5 48 444.5c0 210.667 -16.167 357.167 -48.5 439.5s-87.833 123.5 -166.5 123.5c-78 0 -134 -41.667 -168 -125
c-15.333 -40.667 -27.333 -98.334 -36 -173.001s-13 -163 -13 -265zM87.999 729.001c0 266.667 32.5 458.331 97.5 574.998s171.167 175 318.5 175c145.333 0 250.666 -58 315.999 -174s98 -308 98 -576c0 -267.333 -32.167 -458.666 -96.5 -573.999
s-170.166 -173 -317.499 -173s-253.5 57.833 -318.5 173.5s-97.5 306.834 -97.5 573.501zM622.999 1593h-105l-237 346h178z" />
    <glyph glyph-name="Oacute" unicode="&#xd3;" horiz-adv-x="1006" 
d="M287 733c0 -208 16.832 -354.166 50.499 -438.499s89.834 -126.5 168.501 -126.5c78 0 133 40.167 165 120.5s48 228.5 48 444.5c0 210.667 -16.167 357.167 -48.5 439.5s-87.833 123.5 -166.5 123.5c-78 0 -134 -41.667 -168 -125
c-15.333 -40.667 -27.333 -98.334 -36 -173.001s-13 -163 -13 -265zM87.999 729.001c0 266.667 32.5 458.331 97.5 574.998s171.167 175 318.5 175c145.333 0 250.666 -58 315.999 -174s98 -308 98 -576c0 -267.333 -32.167 -458.666 -96.5 -573.999
s-170.166 -173 -317.499 -173s-253.5 57.833 -318.5 173.5s-97.5 306.834 -97.5 573.501zM384.999 1593l164 346h178l-237 -346h-105z" />
    <glyph glyph-name="Ocircumflex" unicode="&#xd4;" horiz-adv-x="1006" 
d="M287 733c0 -208 16.832 -354.166 50.499 -438.499s89.834 -126.5 168.501 -126.5c78 0 133 40.167 165 120.5s48 228.5 48 444.5c0 210.667 -16.167 357.167 -48.5 439.5s-87.833 123.5 -166.5 123.5c-78 0 -134 -41.667 -168 -125
c-15.333 -40.667 -27.333 -98.334 -36 -173.001s-13 -163 -13 -265zM87.999 729.001c0 266.667 32.5 458.331 97.5 574.998s171.167 175 318.5 175c145.333 0 250.666 -58 315.999 -174s98 -308 98 -576c0 -267.333 -32.167 -458.666 -96.5 -573.999
s-170.166 -173 -317.499 -173s-253.5 57.833 -318.5 173.5s-97.5 306.834 -97.5 573.501zM265.999 1591l152 348h172l152 -348h-105l-133 211l-133 -211h-105z" />
    <glyph glyph-name="Otilde" unicode="&#xd5;" horiz-adv-x="1006" 
d="M287 733c0 -208 16.832 -354.166 50.499 -438.499s89.834 -126.5 168.501 -126.5c78 0 133 40.167 165 120.5s48 228.5 48 444.5c0 210.667 -16.167 357.167 -48.5 439.5s-87.833 123.5 -166.5 123.5c-78 0 -134 -41.667 -168 -125
c-15.333 -40.667 -27.333 -98.334 -36 -173.001s-13 -163 -13 -265zM87.999 729.001c0 266.667 32.5 458.331 97.5 574.998s171.167 175 318.5 175c145.333 0 250.666 -58 315.999 -174s98 -308 98 -576c0 -267.333 -32.167 -458.666 -96.5 -573.999
s-170.166 -173 -317.499 -173s-253.5 57.833 -318.5 173.5s-97.5 306.834 -97.5 573.501zM743.999 1876c-12 -77.333 -30.834 -134.334 -56.501 -171.001s-59.5 -55 -101.5 -55l-26 3c-6.66699 0.666992 -11.5 1.33398 -14.5 2.00098s-8.16699 2.66699 -15.5 6l-66 24l-26 7
l-24 4c-18 0 -32.667 -5.66699 -44 -17c-8.66699 -8.66699 -17.334 -25.667 -26.001 -51h-80c10 72 27.833 126.5 53.5 163.5s59.167 55.5 100.5 55.5c8.66699 0 18.334 -1.33301 29.001 -4l38 -10l70 -25l20 -5l17 -1c18.667 0 33.834 5.83301 45.501 17.5
s20.5 30.5 26.5 56.5h80z" />
    <glyph glyph-name="Odieresis" unicode="&#xd6;" horiz-adv-x="1006" 
d="M287 733c0 -208 16.832 -354.166 50.499 -438.499s89.834 -126.5 168.501 -126.5c78 0 133 40.167 165 120.5s48 228.5 48 444.5c0 210.667 -16.167 357.167 -48.5 439.5s-87.833 123.5 -166.5 123.5c-78 0 -134 -41.667 -168 -125
c-15.333 -40.667 -27.333 -98.334 -36 -173.001s-13 -163 -13 -265zM87.999 729.001c0 266.667 32.5 458.331 97.5 574.998s171.167 175 318.5 175c145.333 0 250.666 -58 315.999 -174s98 -308 98 -576c0 -267.333 -32.167 -458.666 -96.5 -573.999
s-170.166 -173 -317.499 -173s-253.5 57.833 -318.5 173.5s-97.5 306.834 -97.5 573.501zM243.999 1753c0 29.333 10.5 54.666 31.5 75.999s45.833 32 74.5 32c30 0 55.667 -10.667 77 -32s32 -46.666 32 -75.999s-10.833 -54.5 -32.5 -75.5s-47.167 -31.5 -76.5 -31.5
s-54.333 10.333 -75 31s-31 46 -31 76zM546.999 1753c0 29.333 10.502 54.666 31.502 75.999s46.167 32 75.5 32s54.666 -10.667 75.999 -32s32 -46.666 32 -75.999s-10.833 -54.5 -32.5 -75.5s-46.834 -31.5 -75.501 -31.5c-30 0 -55.333 10.333 -76 31s-31 46 -31 76z" />
    <glyph glyph-name="multiply" unicode="&#xd7;" horiz-adv-x="1706" 
d="M858 692l475 477l82 -82l-475 -477l475 -475l-82 -82l-475 475l-477 -475l-80 82l475 475l-475 477l80 82z" />
    <glyph glyph-name="Oslash" unicode="&#xd8;" horiz-adv-x="1006" 
d="M682 1137c-14.667 52.667 -36.832 91.999 -66.499 117.999s-66.834 39 -111.501 39c-78 0 -133.667 -41.667 -167 -125s-50 -228.666 -50 -435.999l3 -135l9 -129zM324.002 339.999c15.333 -56.667 38.168 -98.833 68.501 -126.5s68.166 -41.5 113.499 -41.5
c78 0 133 40 165 120s48 227 48 441l-3 146l-9 129zM117.004 -18l-76 43.001l113 194c-20.667 68 -36.834 145.5 -48.501 232.5s-17.5 180.167 -17.5 279.5c0 266 32.5 457.167 97.5 573.5s171.167 174.5 318.5 174.5c63.333 0 118.666 -11.333 165.999 -34
s90.333 -58.667 129 -108l78 136l75 -43l-102 -181c22 -60 38.833 -131.833 50.5 -215.5s17.5 -180.5 17.5 -290.5c0 -274.667 -32.167 -469.834 -96.5 -585.501s-170.166 -173.5 -317.499 -173.5c-34.667 0 -65.667 2.66699 -93 8s-53.666 14.333 -78.999 27
c-48.667 24 -91.667 61.333 -129 112z" />
    <glyph glyph-name="Ugrave" unicode="&#xd9;" horiz-adv-x="1008" 
d="M119 389v1071h194v-1087c0 -70 15.667 -121.667 47 -155s79.333 -50 144 -50c64 0 111.667 16.667 143 50s47 85 47 155v1087h195v-1071c0 -140.667 -30.833 -243.667 -92.5 -309s-159.167 -98 -292.5 -98c-132.667 0 -230 32.5 -292 97.5s-93 168.167 -93 309.5z
M623 1593h-105l-237 346h178z" />
    <glyph glyph-name="Uacute" unicode="&#xda;" horiz-adv-x="1008" 
d="M119 389v1071h194v-1087c0 -70 15.667 -121.667 47 -155s79.333 -50 144 -50c64 0 111.667 16.667 143 50s47 85 47 155v1087h195v-1071c0 -140.667 -30.833 -243.667 -92.5 -309s-159.167 -98 -292.5 -98c-132.667 0 -230 32.5 -292 97.5s-93 168.167 -93 309.5z
M385 1593l164 346h178l-237 -346h-105z" />
    <glyph glyph-name="Ucircumflex" unicode="&#xdb;" horiz-adv-x="1008" 
d="M119 389v1071h194v-1087c0 -70 15.667 -121.667 47 -155s79.333 -50 144 -50c64 0 111.667 16.667 143 50s47 85 47 155v1087h195v-1071c0 -140.667 -30.833 -243.667 -92.5 -309s-159.167 -98 -292.5 -98c-132.667 0 -230 32.5 -292 97.5s-93 168.167 -93 309.5z
M266 1591l152 348h172l152 -348h-105l-133 211l-133 -211h-105z" />
    <glyph glyph-name="Udieresis" unicode="&#xdc;" horiz-adv-x="1008" 
d="M119 389v1071h194v-1087c0 -70 15.667 -121.667 47 -155s79.333 -50 144 -50c64 0 111.667 16.667 143 50s47 85 47 155v1087h195v-1071c0 -140.667 -30.833 -243.667 -92.5 -309s-159.167 -98 -292.5 -98c-132.667 0 -230 32.5 -292 97.5s-93 168.167 -93 309.5z
M244 1753c0 29.333 10.5 54.666 31.5 75.999s45.833 32 74.5 32c30 0 55.667 -10.667 77 -32s32 -46.666 32 -75.999s-10.833 -54.5 -32.5 -75.5s-47.167 -31.5 -76.5 -31.5s-54.333 10.333 -75 31s-31 46 -31 76zM547 1753c0 29.333 10.502 54.666 31.502 75.999
s46.167 32 75.5 32s54.666 -10.667 75.999 -32s32 -46.666 32 -75.999s-10.833 -54.5 -32.5 -75.5s-46.834 -31.5 -75.501 -31.5c-30 0 -55.333 10.333 -76 31s-31 46 -31 76z" />
    <glyph glyph-name="Yacute" unicode="&#xdd;" horiz-adv-x="461" 
d="M131 0v1460h197v-1460h-197zM122 1757c0 28 11.3311 53.501 33.998 76.501s48.334 34.5 77.001 34.5c29.333 0 55.5 -10.833 78.5 -32.5s34.5 -47.834 34.5 -78.501c0 -30 -11 -56.333 -33 -79s-48.667 -34 -80 -34c-29.333 0 -55.166 11.167 -77.499 33.5
s-33.5 48.833 -33.5 79.5z" />
    <glyph glyph-name="Thorn" unicode="&#xde;" 
d="M307 -16c-13.333 1.33301 -26.6641 3.17285 -39.9971 5.50586s-27.666 5.83301 -42.999 10.5c-42.667 12 -86 30.333 -130 55v201c44.667 -27.333 87.334 -48.166 128.001 -62.499s78 -21.5 112 -21.5c60 0 107.667 17.5 143 52.5s53 81.833 53 140.5
c0 86 -67.667 184.333 -203 295l-36 30c-84.667 70 -144.834 136 -180.501 198s-53.5 130.667 -53.5 206c0 109.333 35 200.833 105 274.5s156.667 110.5 260 110.5c45.333 0 89.166 -5.16699 131.499 -15.5s83.833 -27.166 124.5 -50.499v-196
c-19.333 13.333 -37.833 24.666 -55.5 33.999s-36.5 17.666 -56.5 24.999c-36.667 13.333 -72.334 20 -107.001 20c-62 0 -111.667 -18.167 -149 -54.5s-56 -84.833 -56 -145.5c0 -84 71.667 -183.333 215 -298l31 -24c84 -67.333 143.167 -132.333 177.5 -195
s51.5 -133.334 51.5 -212.001c0 -112.667 -35.667 -205 -107 -277c-60.667 -62 -137 -97.333 -229 -106v-68h12c32 0 59.333 -3.66699 82 -11s42.667 -19.333 60 -36c32.667 -32.667 49 -79.334 49 -140.001c0 -62.667 -17.833 -111 -53.5 -145s-86.834 -51 -153.501 -51
c-32.667 0 -67 3.66699 -103 11c-18 3.33301 -37.5 7.66602 -58.5 12.999s-41.5 11.666 -61.5 18.999v119c17.333 -6 36 -11.833 56 -17.5s38.333 -10.334 55 -14.001s32.667 -6.5 48 -8.5s29.666 -3 42.999 -3c30 0 52.5 6.16699 67.5 18.5s22.5 31.166 22.5 56.499
c0 28 -9.5 48.333 -28.5 61s-48.167 19 -87.5 19l-17 -1l-18 -1v179z" />
    <glyph glyph-name="germandbls" unicode="&#xdf;" horiz-adv-x="778" 
d="M106 0l-0.00195312 1262c0 95.333 24 168.166 72 218.499s117 75.5 207 75.5c102 0 174.333 -27.333 217 -82s64 -150 64 -286c0 -86 -10.5 -147 -31.5 -183s-59.167 -63 -114.5 -81c71.333 -10 120.333 -43.333 147 -100s40 -173 40 -349
c0 -192 -20.333 -320.5 -61 -385.5s-116 -97.5 -226 -97.5h-33v159c50.667 0 86.334 18.667 107.001 56c9.33301 18 16.333 46 21 84s7 88.333 7 151c0 180 -10.167 291.667 -30.5 335s-58.5 65 -114.5 65h-12v145c23.333 0 43.333 3.83301 60 11.5s30 19.167 40 34.5
c19.333 28.667 29 79.667 29 153c0 82.667 -7.66699 138.5 -23 167.5s-42.666 43.5 -81.999 43.5c-34.667 0 -60.667 -11.667 -78 -35s-26 -58.333 -26 -105v-1257h-179z" />
    <glyph glyph-name="agrave" unicode="&#xe0;" horiz-adv-x="801" 
d="M518 0l-0.000976562 95.998c-24 -39.333 -52 -68.166 -84 -86.499s-68.667 -27.5 -110 -27.5c-81.333 0 -143.666 43.333 -186.999 130s-65 213.334 -65 380.001c0 166 21 292 63 378s105 129 189 129c41.333 0 78 -9 110 -27s60 -46.333 84 -85v94h180v-981h-180z
M253.999 491.998c0 -125.333 10.499 -213.666 31.499 -264.999s55.5 -77 103.5 -77s82.5 26 103.5 78s31.5 140 31.5 264c0 125.333 -10.167 213.166 -30.5 263.499s-55.166 75.5 -104.499 75.5c-47.333 0 -82 -25.333 -104 -76c-10 -24.667 -17.667 -59 -23 -103
s-8 -97.333 -8 -160zM552.998 1114h-105l-237 346h178z" />
    <glyph glyph-name="aacute" unicode="&#xe1;" horiz-adv-x="801" 
d="M518 0l-0.000976562 95.998c-24 -39.333 -52 -68.166 -84 -86.499s-68.667 -27.5 -110 -27.5c-81.333 0 -143.666 43.333 -186.999 130s-65 213.334 -65 380.001c0 166 21 292 63 378s105 129 189 129c41.333 0 78 -9 110 -27s60 -46.333 84 -85v94h180v-981h-180z
M253.999 491.998c0 -125.333 10.499 -213.666 31.499 -264.999s55.5 -77 103.5 -77s82.5 26 103.5 78s31.5 140 31.5 264c0 125.333 -10.167 213.166 -30.5 263.499s-55.166 75.5 -104.499 75.5c-47.333 0 -82 -25.333 -104 -76c-10 -24.667 -17.667 -59 -23 -103
s-8 -97.333 -8 -160zM314.998 1114l164 346h178l-237 -346h-105z" />
    <glyph glyph-name="acircumflex" unicode="&#xe2;" horiz-adv-x="801" 
d="M518 0l-0.000976562 95.998c-24 -39.333 -52 -68.166 -84 -86.499s-68.667 -27.5 -110 -27.5c-81.333 0 -143.666 43.333 -186.999 130s-65 213.334 -65 380.001c0 166 21 292 63 378s105 129 189 129c41.333 0 78 -9 110 -27s60 -46.333 84 -85v94h180v-981h-180z
M253.999 491.998c0 -125.333 10.499 -213.666 31.499 -264.999s55.5 -77 103.5 -77s82.5 26 103.5 78s31.5 140 31.5 264c0 125.333 -10.167 213.166 -30.5 263.499s-55.166 75.5 -104.499 75.5c-47.333 0 -82 -25.333 -104 -76c-10 -24.667 -17.667 -59 -23 -103
s-8 -97.333 -8 -160zM195.998 1112l152 348h172l152 -348h-105l-133 211l-133 -211h-105z" />
    <glyph glyph-name="atilde" unicode="&#xe3;" horiz-adv-x="801" 
d="M518 0l-0.000976562 95.998c-24 -39.333 -52 -68.166 -84 -86.499s-68.667 -27.5 -110 -27.5c-81.333 0 -143.666 43.333 -186.999 130s-65 213.334 -65 380.001c0 166 21 292 63 378s105 129 189 129c41.333 0 78 -9 110 -27s60 -46.333 84 -85v94h180v-981h-180z
M253.999 491.998c0 -125.333 10.499 -213.666 31.499 -264.999s55.5 -77 103.5 -77s82.5 26 103.5 78s31.5 140 31.5 264c0 125.333 -10.167 213.166 -30.5 263.499s-55.166 75.5 -104.499 75.5c-47.333 0 -82 -25.333 -104 -76c-10 -24.667 -17.667 -59 -23 -103
s-8 -97.333 -8 -160zM673.998 1397c-12 -77.333 -30.834 -134.334 -56.501 -171.001s-59.5 -55 -101.5 -55l-26 3c-6.66699 0.666992 -11.5 1.33398 -14.5 2.00098s-8.16699 2.66699 -15.5 6l-66 24l-26 7l-24 4c-18 0 -32.667 -5.66699 -44 -17
c-8.66699 -8.66699 -17.334 -25.667 -26.001 -51h-80c10 72 27.833 126.5 53.5 163.5s59.167 55.5 100.5 55.5c8.66699 0 18.334 -1.33301 29.001 -4l38 -10l70 -25l20 -5l17 -1c18.667 0 33.834 5.83301 45.501 17.5s20.5 30.5 26.5 56.5h80z" />
    <glyph glyph-name="adieresis" unicode="&#xe4;" horiz-adv-x="801" 
d="M518 0l-0.000976562 95.998c-24 -39.333 -52 -68.166 -84 -86.499s-68.667 -27.5 -110 -27.5c-81.333 0 -143.666 43.333 -186.999 130s-65 213.334 -65 380.001c0 166 21 292 63 378s105 129 189 129c41.333 0 78 -9 110 -27s60 -46.333 84 -85v94h180v-981h-180z
M253.999 491.998c0 -125.333 10.499 -213.666 31.499 -264.999s55.5 -77 103.5 -77s82.5 26 103.5 78s31.5 140 31.5 264c0 125.333 -10.167 213.166 -30.5 263.499s-55.166 75.5 -104.499 75.5c-47.333 0 -82 -25.333 -104 -76c-10 -24.667 -17.667 -59 -23 -103
s-8 -97.333 -8 -160zM173.998 1274c0 29.333 10.5 54.666 31.5 75.999s45.833 32 74.5 32c30 0 55.667 -10.667 77 -32s32 -46.666 32 -75.999s-10.833 -54.5 -32.5 -75.5s-47.167 -31.5 -76.5 -31.5s-54.333 10.333 -75 31s-31 46 -31 76zM476.998 1274
c0 29.333 10.502 54.666 31.502 75.999s46.167 32 75.5 32s54.666 -10.667 75.999 -32s32 -46.666 32 -75.999s-10.833 -54.5 -32.5 -75.5s-46.834 -31.5 -75.501 -31.5c-30 0 -55.333 10.333 -76 31s-31 46 -31 76z" />
    <glyph glyph-name="aring" unicode="&#xe5;" horiz-adv-x="801" 
d="M207 1284c0 62 21.5 114.667 64.5 158s95.833 65 158.5 65s115.834 -21.667 159.501 -65s65.5 -96 65.5 -158c0 -61.333 -21.833 -113.833 -65.5 -157.5s-96.834 -65.5 -159.501 -65.5c-61.333 0 -113.833 22 -157.5 66s-65.5 96.333 -65.5 157zM518 0
l-0.000976562 95.998c-24 -39.333 -52 -68.166 -84 -86.499s-68.667 -27.5 -110 -27.5c-81.333 0 -143.666 43.333 -186.999 130s-65 213.334 -65 380.001c0 166 21 292 63 378s105 129 189 129c41.333 0 78 -9 110 -27s60 -46.333 84 -85v94h180v-981h-180z
M253.999 491.998c0 -125.333 10.499 -213.666 31.499 -264.999s55.5 -77 103.5 -77s82.5 26 103.5 78s31.5 140 31.5 264c0 125.333 -10.167 213.166 -30.5 263.499s-55.166 75.5 -104.499 75.5c-47.333 0 -82 -25.333 -104 -76c-10 -24.667 -17.667 -59 -23 -103
s-8 -97.333 -8 -160zM321.998 1284c0 -29.333 10.668 -54.666 32.001 -75.999s46.666 -32 75.999 -32c30 0 55.667 10.667 77 32s32 46.666 32 75.999c0 30 -10.667 55.667 -32 77s-47 32 -77 32s-55.5 -10.5 -76.5 -31.5s-31.5 -46.833 -31.5 -77.5z" />
    <glyph glyph-name="ae" unicode="&#xe6;" horiz-adv-x="1130" 
d="M350 508c-39.333 0 -70.333 -16.5 -93 -49.5s-34 -77.833 -34 -134.5c0 -58.667 11.167 -104.5 33.5 -137.5s53.5 -49.5 93.5 -49.5s70.167 17.333 90.5 52s30.5 85 30.5 151c0 52 -10.833 93 -32.5 123s-51.167 45 -88.5 45zM625 598h273.999v25
c0 80.667 -10.667 139 -32 175s-55.666 54 -102.999 54c-44 0 -78.167 -19.333 -102.5 -58s-36.5 -95 -36.5 -169v-27zM1063 328l0.00292969 -12.999c0 -101.333 -25.833 -181.5 -77.5 -240.5s-122.834 -88.5 -213.501 -88.5c-60.667 0 -110.334 12.333 -149.001 37
s-71.667 64.667 -99 120c-20 -51.333 -48.5 -90.333 -85.5 -117s-80.833 -40 -131.5 -40c-80 0 -142.667 30.167 -188 90.5s-68 144.833 -68 253.5c0 97.333 22.167 173.833 66.5 229.5s105.5 83.5 183.5 83.5c29.333 0 57.666 -4.83301 84.999 -14.5s53 -24.5 77 -44.5v75
c0 64 -12.667 110.833 -38 140.5s-64.666 44.5 -117.999 44.5c-26.667 0 -55 -4.83301 -85 -14.5s-62.333 -24.834 -97 -45.501v170c32.667 14.667 67 26 103 34c15.333 3.33301 32 6 50 8s36 3 54 3c48.667 0 90.667 -10.167 126 -30.5s64.333 -50.833 87 -91.5
c27.333 41.333 58.666 72 93.999 92s76.333 30 123 30c109.333 0 188.5 -38 237.5 -114s73.5 -199.667 73.5 -371v-57h-448v-27c0 -102 11.667 -176.333 35 -223s60 -70 110 -70c39.333 0 70 16 92 48c10.667 16 19.167 36.167 25.5 60.5s9.5 51.5 9.5 81.5z" />
    <glyph glyph-name="ccedilla" unicode="&#xe7;" horiz-adv-x="522" 
d="M250 -3c-50.667 18 -90.999 53.3389 -120.999 106.006c-46.667 83.333 -70 212 -70 386c0 167.333 23.667 294.166 71 380.499s116.666 129.5 207.999 129.5c29.333 0 56.333 -3.33301 81 -10c26 -6 51.667 -15.333 77 -28v-173c-15.333 15.333 -31.5 26.833 -48.5 34.5
s-33.833 11.5 -50.5 11.5c-52 0 -90.833 -29.333 -116.5 -88s-38.5 -147 -38.5 -265c0 -108.667 12.5 -189.667 37.5 -243s62.833 -80 113.5 -80c18.667 0 36.334 3.5 53.001 10.5s33.334 17.833 50.001 32.5v-185c-25.333 -12 -50 -21 -74 -27s-48.667 -9 -74 -9h-12v-54
h12c32 0 59.333 -3.66699 82 -11s42.667 -19.333 60 -36c32.667 -32.667 49 -79.334 49 -140.001c0 -62.667 -17.833 -111 -53.5 -145s-86.834 -51 -153.501 -51c-32.667 0 -67 3.66699 -103 11c-18 3.33301 -37.5 7.66602 -58.5 12.999s-41.5 11.666 -61.5 18.999v119
c17.333 -6 36 -11.833 56 -17.5s38.333 -10.334 55 -14.001s32.667 -6.5 48 -8.5s29.666 -3 42.999 -3c30 0 52.5 6.16699 67.5 18.5s22.5 31.166 22.5 56.499c0 28 -9.5 48.333 -28.5 61s-48.167 19 -87.5 19l-17 -1l-18 -1v182z" />
    <glyph glyph-name="egrave" unicode="&#xe8;" horiz-adv-x="741" 
d="M231 598h274.999v25c0 80.667 -10.667 139 -32 175s-55.666 54 -102.999 54c-46.667 0 -81.667 -21.5 -105 -64.5s-35 -106.167 -35 -189.5zM669.999 328v-12.9971c0 -102.667 -26 -183.834 -78 -243.501s-123 -89.5 -213 -89.5c-110 0 -190.667 40.667 -242 122
c-25.333 41.333 -44.333 94.166 -57 158.499s-19 142.166 -19 233.499c0 168.667 25.5 294.667 76.5 378s128.167 125 231.5 125c109.333 0 188.5 -38 237.5 -114s73.5 -199.667 73.5 -371v-57h-449v-29c0 -102.667 11.667 -177.167 35 -223.5s60.333 -69.5 111 -69.5
c39.333 0 70 16 92 48c10.667 16 19.167 36.5 25.5 61.5s9.5 52.5 9.5 82.5zM489.999 1114h-105l-237 346h178z" />
    <glyph glyph-name="eacute" unicode="&#xe9;" horiz-adv-x="741" 
d="M231 598h274.999v25c0 80.667 -10.667 139 -32 175s-55.666 54 -102.999 54c-46.667 0 -81.667 -21.5 -105 -64.5s-35 -106.167 -35 -189.5zM669.999 328v-12.9971c0 -102.667 -26 -183.834 -78 -243.501s-123 -89.5 -213 -89.5c-110 0 -190.667 40.667 -242 122
c-25.333 41.333 -44.333 94.166 -57 158.499s-19 142.166 -19 233.499c0 168.667 25.5 294.667 76.5 378s128.167 125 231.5 125c109.333 0 188.5 -38 237.5 -114s73.5 -199.667 73.5 -371v-57h-449v-29c0 -102.667 11.667 -177.167 35 -223.5s60.333 -69.5 111 -69.5
c39.333 0 70 16 92 48c10.667 16 19.167 36.5 25.5 61.5s9.5 52.5 9.5 82.5zM251.999 1114l164 346h178l-237 -346h-105z" />
    <glyph glyph-name="ecircumflex" unicode="&#xea;" horiz-adv-x="741" 
d="M231 598h274.999v25c0 80.667 -10.667 139 -32 175s-55.666 54 -102.999 54c-46.667 0 -81.667 -21.5 -105 -64.5s-35 -106.167 -35 -189.5zM669.999 328v-12.9971c0 -102.667 -26 -183.834 -78 -243.501s-123 -89.5 -213 -89.5c-110 0 -190.667 40.667 -242 122
c-25.333 41.333 -44.333 94.166 -57 158.499s-19 142.166 -19 233.499c0 168.667 25.5 294.667 76.5 378s128.167 125 231.5 125c109.333 0 188.5 -38 237.5 -114s73.5 -199.667 73.5 -371v-57h-449v-29c0 -102.667 11.667 -177.167 35 -223.5s60.333 -69.5 111 -69.5
c39.333 0 70 16 92 48c10.667 16 19.167 36.5 25.5 61.5s9.5 52.5 9.5 82.5zM132.999 1112l152 348h172l152 -348h-105l-133 211l-133 -211h-105z" />
    <glyph glyph-name="edieresis" unicode="&#xeb;" horiz-adv-x="741" 
d="M231 598h274.999v25c0 80.667 -10.667 139 -32 175s-55.666 54 -102.999 54c-46.667 0 -81.667 -21.5 -105 -64.5s-35 -106.167 -35 -189.5zM669.999 328v-12.9971c0 -102.667 -26 -183.834 -78 -243.501s-123 -89.5 -213 -89.5c-110 0 -190.667 40.667 -242 122
c-25.333 41.333 -44.333 94.166 -57 158.499s-19 142.166 -19 233.499c0 168.667 25.5 294.667 76.5 378s128.167 125 231.5 125c109.333 0 188.5 -38 237.5 -114s73.5 -199.667 73.5 -371v-57h-449v-29c0 -102.667 11.667 -177.167 35 -223.5s60.333 -69.5 111 -69.5
c39.333 0 70 16 92 48c10.667 16 19.167 36.5 25.5 61.5s9.5 52.5 9.5 82.5zM110.999 1274c0 29.333 10.5 54.666 31.5 75.999s45.833 32 74.5 32c30 0 55.667 -10.667 77 -32s32 -46.666 32 -75.999s-10.833 -54.5 -32.5 -75.5s-47.167 -31.5 -76.5 -31.5
s-54.333 10.333 -75 31s-31 46 -31 76zM413.999 1274c0 29.333 10.502 54.666 31.502 75.999s46.167 32 75.5 32s54.666 -10.667 75.999 -32s32 -46.666 32 -75.999s-10.833 -54.5 -32.5 -75.5s-46.834 -31.5 -75.501 -31.5c-30 0 -55.333 10.333 -76 31s-31 46 -31 76z" />
    <glyph glyph-name="igrave" unicode="&#xec;" horiz-adv-x="410" 
d="M115 0v981h180v-981h-180zM324 1114h-105l-237 346h178z" />
    <glyph glyph-name="iacute" unicode="&#xed;" horiz-adv-x="410" 
d="M115 0v981h180v-981h-180zM86 1114l164 346h178l-237 -346h-105z" />
    <glyph glyph-name="icircumflex" unicode="&#xee;" horiz-adv-x="410" 
d="M115 0v981h180v-981h-180zM-33 1112l152 348h172l152 -348h-105l-133 211l-133 -211h-105z" />
    <glyph glyph-name="idieresis" unicode="&#xef;" horiz-adv-x="410" 
d="M115 0v981h180v-981h-180zM-55 1274c0 29.333 10.5 54.666 31.5 75.999s45.833 32 74.5 32c30 0 55.667 -10.667 77 -32s32 -46.666 32 -75.999s-10.833 -54.5 -32.5 -75.5s-47.167 -31.5 -76.5 -31.5s-54.333 10.333 -75 31s-31 46 -31 76zM248 1274
c0 29.333 10.502 54.666 31.502 75.999s46.167 32 75.5 32s54.666 -10.667 75.999 -32s32 -46.666 32 -75.999s-10.833 -54.5 -32.5 -75.5s-46.834 -31.5 -75.501 -31.5c-30 0 -55.333 10.333 -76 31s-31 46 -31 76z" />
    <glyph glyph-name="eth" unicode="&#xf0;" horiz-adv-x="801" 
d="M254 492c0 -126.667 10.167 -214.999 30.5 -264.999s55.166 -75 104.499 -75c47.333 0 82 25 104 75c10 25.333 17.667 59.833 23 103.5s8 97.5 8 161.5c0 125.333 -10.167 213.166 -30.5 263.499s-55.166 75.5 -104.499 75.5c-47.333 0 -82 -25.333 -104 -76
c-10 -24.667 -17.667 -59 -23 -103s-8 -97.333 -8 -160zM698 -22.999c0 -134 -24.834 -229.499 -74.501 -286.499s-132.5 -85.5 -248.5 -85.5c-95.333 0 -168.333 24.333 -219 73s-76 117.667 -76 207v31h171c0 -24.667 2.83301 -47.167 8.5 -67.5
s13.834 -37.5 24.501 -51.5c20 -26 51 -39 93 -39c50.667 0 86.834 15.667 108.501 47s32.5 82.666 32.5 153.999v139c-23.333 -37.333 -51.333 -65.666 -84 -84.999s-69.334 -29 -110.001 -29c-85.333 0 -148.666 41.333 -189.999 124s-62 210.667 -62 384
s20.167 301.166 60.5 383.499s104.166 123.5 191.499 123.5c41.333 0 78 -9 110 -27s60 -46.333 84 -85v94h180v-1004zM162.999 1434l97.002 -0.99707c0 -23.333 3.16699 -44.333 9.5 -63s15.5 -34.334 27.5 -47.001c22 -23.333 56.667 -35 104 -35s82.333 11.667 105 35
c11.333 12 20.166 27.167 26.499 45.5s9.5 39.833 9.5 64.5l97 1c0 -46.667 -5.83301 -88.667 -17.5 -126s-27.834 -69 -48.501 -95c-38 -48 -95.333 -72 -172 -72c-74.667 0 -132 24 -172 72c-20 25.333 -36 56.666 -48 93.999s-18 79.666 -18 126.999z" />
    <glyph glyph-name="ntilde" unicode="&#xf1;" horiz-adv-x="817" 
d="M113 0l0.000976562 980.999h178v-98c24 36 53 63 87 81s74 27 120 27c71.333 0 124.666 -20.167 159.999 -60.5s53 -101.166 53 -182.499v-748h-181v659c0 66.667 -8.66699 112 -26 136s-47.333 36 -90 36c-40 0 -70.167 -12.333 -90.5 -37s-30.5 -62 -30.5 -112v-682
h-180zM650.001 1397c-12 -77.333 -30.834 -134.334 -56.501 -171.001s-59.5 -55 -101.5 -55l-26 3c-6.66699 0.666992 -11.5 1.33398 -14.5 2.00098s-8.16699 2.66699 -15.5 6l-66 24l-26 7l-24 4c-18 0 -32.667 -5.66699 -44 -17
c-8.66699 -8.66699 -17.334 -25.667 -26.001 -51h-80c10 72 27.833 126.5 53.5 163.5s59.167 55.5 100.5 55.5c8.66699 0 18.334 -1.33301 29.001 -4l38 -10l70 -25l20 -5l17 -1c18.667 0 33.834 5.83301 45.501 17.5s20.5 30.5 26.5 56.5h80z" />
    <glyph glyph-name="ograve" unicode="&#xf2;" horiz-adv-x="784" 
d="M244 494c0 -121.333 11.8301 -209.5 35.4971 -264.5s60.834 -82.5 111.501 -82.5c50 0 87.5 28.333 112.5 85s37.5 144 37.5 262c0 118.667 -12.167 206 -36.5 262s-62.166 84 -113.499 84c-49.333 0 -86.166 -28 -110.499 -84s-36.5 -143.333 -36.5 -262zM60.9971 492
c0 164 28.167 289.501 84.5 376.501s138.166 130.5 245.499 130.5c106.667 0 188.334 -43.333 245.001 -130c27.333 -42.667 48.333 -95.667 63 -159s22 -136 22 -218c0 -166 -28.333 -292.5 -85 -379.5s-138.334 -130.5 -245.001 -130.5
c-107.333 0 -189.166 43.167 -245.499 129.5s-84.5 213.166 -84.5 380.499zM511.997 1114h-105l-237 346h178z" />
    <glyph glyph-name="oacute" unicode="&#xf3;" horiz-adv-x="784" 
d="M244 494c0 -121.333 11.8301 -209.5 35.4971 -264.5s60.834 -82.5 111.501 -82.5c50 0 87.5 28.333 112.5 85s37.5 144 37.5 262c0 118.667 -12.167 206 -36.5 262s-62.166 84 -113.499 84c-49.333 0 -86.166 -28 -110.499 -84s-36.5 -143.333 -36.5 -262zM60.9971 492
c0 164 28.167 289.501 84.5 376.501s138.166 130.5 245.499 130.5c106.667 0 188.334 -43.333 245.001 -130c27.333 -42.667 48.333 -95.667 63 -159s22 -136 22 -218c0 -166 -28.333 -292.5 -85 -379.5s-138.334 -130.5 -245.001 -130.5
c-107.333 0 -189.166 43.167 -245.499 129.5s-84.5 213.166 -84.5 380.499zM273.997 1114l164 346h178l-237 -346h-105z" />
    <glyph glyph-name="ocircumflex" unicode="&#xf4;" horiz-adv-x="784" 
d="M244 494c0 -121.333 11.8301 -209.5 35.4971 -264.5s60.834 -82.5 111.501 -82.5c50 0 87.5 28.333 112.5 85s37.5 144 37.5 262c0 118.667 -12.167 206 -36.5 262s-62.166 84 -113.499 84c-49.333 0 -86.166 -28 -110.499 -84s-36.5 -143.333 -36.5 -262zM60.9971 492
c0 164 28.167 289.501 84.5 376.501s138.166 130.5 245.499 130.5c106.667 0 188.334 -43.333 245.001 -130c27.333 -42.667 48.333 -95.667 63 -159s22 -136 22 -218c0 -166 -28.333 -292.5 -85 -379.5s-138.334 -130.5 -245.001 -130.5
c-107.333 0 -189.166 43.167 -245.499 129.5s-84.5 213.166 -84.5 380.499zM154.997 1112l152 348h172l152 -348h-105l-133 211l-133 -211h-105z" />
    <glyph glyph-name="otilde" unicode="&#xf5;" horiz-adv-x="784" 
d="M244 494c0 -121.333 11.8301 -209.5 35.4971 -264.5s60.834 -82.5 111.501 -82.5c50 0 87.5 28.333 112.5 85s37.5 144 37.5 262c0 118.667 -12.167 206 -36.5 262s-62.166 84 -113.499 84c-49.333 0 -86.166 -28 -110.499 -84s-36.5 -143.333 -36.5 -262zM60.9971 492
c0 164 28.167 289.501 84.5 376.501s138.166 130.5 245.499 130.5c106.667 0 188.334 -43.333 245.001 -130c27.333 -42.667 48.333 -95.667 63 -159s22 -136 22 -218c0 -166 -28.333 -292.5 -85 -379.5s-138.334 -130.5 -245.001 -130.5
c-107.333 0 -189.166 43.167 -245.499 129.5s-84.5 213.166 -84.5 380.499zM632.997 1397c-12 -77.333 -30.834 -134.334 -56.501 -171.001s-59.5 -55 -101.5 -55l-26 3c-6.66699 0.666992 -11.5 1.33398 -14.5 2.00098s-8.16699 2.66699 -15.5 6l-66 24l-26 7l-24 4
c-18 0 -32.667 -5.66699 -44 -17c-8.66699 -8.66699 -17.334 -25.667 -26.001 -51h-80c10 72 27.833 126.5 53.5 163.5s59.167 55.5 100.5 55.5c8.66699 0 18.334 -1.33301 29.001 -4l38 -10l70 -25l20 -5l17 -1c18.667 0 33.834 5.83301 45.501 17.5s20.5 30.5 26.5 56.5
h80z" />
    <glyph glyph-name="odieresis" unicode="&#xf6;" horiz-adv-x="784" 
d="M244 494c0 -121.333 11.8301 -209.5 35.4971 -264.5s60.834 -82.5 111.501 -82.5c50 0 87.5 28.333 112.5 85s37.5 144 37.5 262c0 118.667 -12.167 206 -36.5 262s-62.166 84 -113.499 84c-49.333 0 -86.166 -28 -110.499 -84s-36.5 -143.333 -36.5 -262zM60.9971 492
c0 164 28.167 289.501 84.5 376.501s138.166 130.5 245.499 130.5c106.667 0 188.334 -43.333 245.001 -130c27.333 -42.667 48.333 -95.667 63 -159s22 -136 22 -218c0 -166 -28.333 -292.5 -85 -379.5s-138.334 -130.5 -245.001 -130.5
c-107.333 0 -189.166 43.167 -245.499 129.5s-84.5 213.166 -84.5 380.499zM132.997 1274c0 29.333 10.5 54.666 31.5 75.999s45.833 32 74.5 32c30 0 55.667 -10.667 77 -32s32 -46.666 32 -75.999s-10.833 -54.5 -32.5 -75.5s-47.167 -31.5 -76.5 -31.5
s-54.333 10.333 -75 31s-31 46 -31 76zM435.997 1274c0 29.333 10.502 54.666 31.502 75.999s46.167 32 75.5 32s54.666 -10.667 75.999 -32s32 -46.666 32 -75.999s-10.833 -54.5 -32.5 -75.5s-46.834 -31.5 -75.501 -31.5c-30 0 -55.333 10.333 -76 31s-31 46 -31 76z" />
    <glyph glyph-name="divide" unicode="&#xf7;" horiz-adv-x="1706" 
d="M854 365c31.333 0 58.333 -11.333 81 -34s34 -49.667 34 -81s-11.333 -58.333 -34 -81s-49.667 -34 -81 -34s-58.333 11 -81 33s-34 49.333 -34 82c0 32 11.333 59.167 34 81.5s49.667 33.5 81 33.5zM1452 670v-117h-1198v117h1198zM854 1085
c32 0 59.167 -11.333 81.5 -34s33.5 -49.334 33.5 -80.001c0 -32 -11.167 -59.167 -33.5 -81.5s-49.5 -33.5 -81.5 -33.5c-31.333 0 -58.333 11 -81 33s-34 49.333 -34 82c0 30.667 11.333 57.334 34 80.001s49.667 34 81 34z" />
    <glyph glyph-name="oslash" unicode="&#xf8;" horiz-adv-x="784" 
d="M481 797c-9.33301 13.333 -21.668 23.834 -37.001 31.501s-33 11.5 -53 11.5c-49.333 0 -86.166 -28 -110.499 -84s-36.5 -143.333 -36.5 -262l3 -110c0 -16 0.833008 -30.333 2.5 -43s4.5 -27.334 8.5 -44.001zM294.998 201.001
c11.333 -18.667 25.168 -32.666 41.501 -41.999s34.5 -14 54.5 -14c49.333 0 87 28.333 113 85c11.333 27.333 20.333 63.666 27 108.999s10 97 10 155c0 42 -2 80 -6 114c-1.33301 18 -3.33301 34.5 -6 49.5s-6.33398 30.833 -11.001 47.5zM115 -22.998l47.0029 111.001
c-33.333 44 -58.5 98.333 -75.5 163s-25.5 145 -25.5 241c0 166.667 28.167 293.167 84.5 379.5s139.5 129.5 249.5 129.5c33.333 0 62 -3.66699 86 -11c26.667 -6 50 -16.667 70 -32l43 95l68 -31l-52 -117c35.333 -41.333 62.666 -97.333 81.999 -168
s29 -152.334 29 -245.001c0 -166 -27.833 -292.833 -83.5 -380.5s-135.834 -131.5 -240.501 -131.5c-35.333 0 -67.333 4 -96 12s-55.334 20.333 -80.001 37l-37 -82z" />
    <glyph glyph-name="ugrave" unicode="&#xf9;" horiz-adv-x="817" 
d="M109 289v692.002h180v-702c0 -44.667 10 -78.834 30 -102.501s49.667 -35.5 89 -35.5c38 0 67.167 11.667 87.5 35s30.5 57.666 30.5 102.999v702h183v-692c0 -107.333 -23.833 -185.333 -71.5 -234s-124.167 -73 -229.5 -73c-104.667 0 -180.667 24.167 -228 72.5
s-71 126.5 -71 234.5zM529 1114h-105l-237 346h178z" />
    <glyph glyph-name="uacute" unicode="&#xfa;" horiz-adv-x="817" 
d="M109 289v692.002h180v-702c0 -44.667 10 -78.834 30 -102.501s49.667 -35.5 89 -35.5c38 0 67.167 11.667 87.5 35s30.5 57.666 30.5 102.999v702h183v-692c0 -107.333 -23.833 -185.333 -71.5 -234s-124.167 -73 -229.5 -73c-104.667 0 -180.667 24.167 -228 72.5
s-71 126.5 -71 234.5zM291 1114l164 346h178l-237 -346h-105z" />
    <glyph glyph-name="ucircumflex" unicode="&#xfb;" horiz-adv-x="817" 
d="M109 289v692.002h180v-702c0 -44.667 10 -78.834 30 -102.501s49.667 -35.5 89 -35.5c38 0 67.167 11.667 87.5 35s30.5 57.666 30.5 102.999v702h183v-692c0 -107.333 -23.833 -185.333 -71.5 -234s-124.167 -73 -229.5 -73c-104.667 0 -180.667 24.167 -228 72.5
s-71 126.5 -71 234.5zM172 1112l152 348h172l152 -348h-105l-133 211l-133 -211h-105z" />
    <glyph glyph-name="udieresis" unicode="&#xfc;" horiz-adv-x="817" 
d="M109 289v692.002h180v-702c0 -44.667 10 -78.834 30 -102.501s49.667 -35.5 89 -35.5c38 0 67.167 11.667 87.5 35s30.5 57.666 30.5 102.999v702h183v-692c0 -107.333 -23.833 -185.333 -71.5 -234s-124.167 -73 -229.5 -73c-104.667 0 -180.667 24.167 -228 72.5
s-71 126.5 -71 234.5zM150 1274c0 29.333 10.5 54.666 31.5 75.999s45.833 32 74.5 32c30 0 55.667 -10.667 77 -32s32 -46.666 32 -75.999s-10.833 -54.5 -32.5 -75.5s-47.167 -31.5 -76.5 -31.5s-54.333 10.333 -75 31s-31 46 -31 76zM453 1274
c0 29.333 10.502 54.666 31.502 75.999s46.167 32 75.5 32s54.666 -10.667 75.999 -32s32 -46.666 32 -75.999s-10.833 -54.5 -32.5 -75.5s-46.834 -31.5 -75.501 -31.5c-30 0 -55.333 10.333 -76 31s-31 46 -31 76z" />
    <glyph glyph-name="yacute" unicode="&#xfd;" horiz-adv-x="410" 
d="M115 0v981h180v-981h-180z" />
    <glyph glyph-name="thorn" unicode="&#xfe;" horiz-adv-x="559" 
d="M193 -16c-8 0 -16.667 1.00977 -26 3.00977s-16.666 3.33301 -21.999 4c-27.333 6 -56.666 15 -87.999 27v189c23.333 -20.667 48.333 -37.334 75 -50.001c14 -5.33301 26.667 -9.33301 38 -12s24.333 -4 39 -4c38.667 0 69.834 11.167 93.501 33.5s35.5 51.5 35.5 87.5
c0 41.333 -33 93.666 -99 156.999l-20 19c-64.667 60.667 -107.834 111 -129.501 151s-32.5 84 -32.5 132c0 82 25.167 149.167 75.5 201.5s116.166 78.5 197.499 78.5c27.333 0 53.333 -3.16699 78 -9.5s50.334 -16.5 77.001 -30.5v-185c-18 21.333 -39 37.666 -63 48.999
s-50.667 17 -80 17c-33.333 0 -60.833 -10.667 -82.5 -32s-32.5 -48.333 -32.5 -81c0 -42.667 31.667 -93.334 95 -152.001l28 -26c59.333 -54 100.5 -103.333 123.5 -148s34.5 -93.667 34.5 -147c0 -82.667 -25.333 -149.334 -76 -200.001
c-39.333 -38 -90.333 -61.667 -153 -71v-69h12c32 0 59.333 -3.66699 82 -11s42.667 -19.333 60 -36c32.667 -32.667 49 -79.334 49 -140.001c0 -62.667 -17.833 -111 -53.5 -145s-86.834 -51 -153.501 -51c-32.667 0 -67 3.66699 -103 11
c-18 3.33301 -37.5 7.66602 -58.5 12.999s-41.5 11.666 -61.5 18.999v119c17.333 -6 36 -11.833 56 -17.5s38.333 -10.334 55 -14.001s32.667 -6.5 48 -8.5s29.666 -3 42.999 -3c30 0 52.5 6.16699 67.5 18.5s22.5 31.166 22.5 56.499c0 28 -9.5 48.333 -28.5 61
s-48.167 19 -87.5 19l-17 -1l-18 -1v179z" />
    <glyph glyph-name="ydieresis" unicode="&#xff;" horiz-adv-x="672" 
d="M27 981h186l115 -643l155 643h179l-396 -1376h-186l151 481zM76 1274c0 29.333 10.5 54.666 31.5 75.999s45.833 32 74.5 32c30 0 55.667 -10.667 77 -32s32 -46.666 32 -75.999s-10.833 -54.5 -32.5 -75.5s-47.167 -31.5 -76.5 -31.5s-54.333 10.333 -75 31
s-31 46 -31 76zM379 1274c0 29.333 10.502 54.666 31.502 75.999s46.167 32 75.5 32s54.666 -10.667 75.999 -32s32 -46.666 32 -75.999s-10.833 -54.5 -32.5 -75.5s-46.834 -31.5 -75.501 -31.5c-30 0 -55.333 10.333 -76 31s-31 46 -31 76z" />
    <glyph glyph-name="Cacute" unicode="&#x106;" horiz-adv-x="780" 
d="M735 33c-16 -8.66699 -31.5 -15.8311 -46.5 -21.498s-32.5 -11.167 -52.5 -16.5c-36 -8.66699 -71.333 -13 -106 -13c-148 0 -259.333 61 -334 183s-112 306 -112 552c0 250 39.5 439.5 118.5 568.5s195.833 193.5 350.5 193.5c35.333 0 67.333 -3.33301 96 -10
c31.333 -6 60 -15.667 86 -29v-187c-26.667 13.333 -53.667 23.666 -81 30.999c-10 2.66699 -22 5 -36 7s-26 3 -36 3c-103.333 0 -179.333 -45.833 -228 -137.5s-73 -237.5 -73 -437.5c0 -186.667 22.833 -324.834 68.5 -414.501s116.167 -134.5 211.5 -134.5
c27.333 0 54.833 4.33301 82.5 13s58.167 22.667 91.5 42v-192zM409 1593l164 346h178l-237 -346h-105z" />
    <glyph glyph-name="cacute" unicode="&#x107;" horiz-adv-x="522" 
d="M496 16c-25.333 -12 -50.001 -20.999 -74.001 -26.999s-48.667 -9 -74 -9c-98 0 -170.667 41.333 -218 124s-71 211 -71 385c0 167.333 23.667 294.166 71 380.499s116.666 129.5 207.999 129.5c29.333 0 56.333 -3.33301 81 -10c26 -6 51.667 -15.333 77 -28v-173
c-15.333 15.333 -31.5 26.833 -48.5 34.5s-33.833 11.5 -50.5 11.5c-52 0 -90.833 -29.333 -116.5 -88s-38.5 -147 -38.5 -265c0 -108.667 12.5 -189.667 37.5 -243s62.833 -80 113.5 -80c18.667 0 36.334 3.5 53.001 10.5s33.334 17.833 50.001 32.5v-185zM210.999 1114
l164 346h178l-237 -346h-105z" />
    <glyph glyph-name="Ccaron" unicode="&#x10c;" horiz-adv-x="780" 
d="M735 33c-16 -8.66699 -31.5 -15.8311 -46.5 -21.498s-32.5 -11.167 -52.5 -16.5c-36 -8.66699 -71.333 -13 -106 -13c-148 0 -259.333 61 -334 183s-112 306 -112 552c0 250 39.5 439.5 118.5 568.5s195.833 193.5 350.5 193.5c35.333 0 67.333 -3.33301 96 -10
c31.333 -6 60 -15.667 86 -29v-187c-26.667 13.333 -53.667 23.666 -81 30.999c-10 2.66699 -22 5 -36 7s-26 3 -36 3c-103.333 0 -179.333 -45.833 -228 -137.5s-73 -237.5 -73 -437.5c0 -186.667 22.833 -324.834 68.5 -414.501s116.167 -134.5 211.5 -134.5
c27.333 0 54.833 4.33301 82.5 13s58.167 22.667 91.5 42v-192zM290 1939h105l133 -209l133 209h105l-152 -348h-172z" />
    <glyph glyph-name="ccaron" unicode="&#x10d;" horiz-adv-x="522" 
d="M496 16c-25.333 -12 -50.001 -20.999 -74.001 -26.999s-48.667 -9 -74 -9c-98 0 -170.667 41.333 -218 124s-71 211 -71 385c0 167.333 23.667 294.166 71 380.499s116.666 129.5 207.999 129.5c29.333 0 56.333 -3.33301 81 -10c26 -6 51.667 -15.333 77 -28v-173
c-15.333 15.333 -31.5 26.833 -48.5 34.5s-33.833 11.5 -50.5 11.5c-52 0 -90.833 -29.333 -116.5 -88s-38.5 -147 -38.5 -265c0 -108.667 12.5 -189.667 37.5 -243s62.833 -80 113.5 -80c18.667 0 36.334 3.5 53.001 10.5s33.334 17.833 50.001 32.5v-185zM91.999 1460h105
l133 -209l133 209h105l-152 -348h-172z" />
    <glyph glyph-name="dcroat" unicode="&#x111;" horiz-adv-x="807" 
d="M254 489c0 -126 10.167 -214 30.5 -264s55.166 -75 104.499 -75c47.333 0 81.666 25.5 102.999 76.5s32 138.5 32 262.5c0 126.667 -10.167 215 -30.5 265s-55.166 75 -104.499 75c-47.333 0 -81.666 -25.667 -102.999 -77s-32 -139 -32 -263zM518 0v95.998
c-24 -39.333 -52 -68.166 -84 -86.499s-68.667 -27.5 -110 -27.5c-85.333 0 -148.666 41.333 -189.999 124s-62 210.334 -62 383.001c0 174.667 20.167 303 60.5 385s104.166 123 191.499 123c41.333 0 78 -9 110 -27s60 -46.333 84 -85v317h-196v113h196v235h180v-235h127
v-113h-127v-1202h-180z" />
    <glyph glyph-name="Gbreve" unicode="&#x11e;" horiz-adv-x="1004" 
d="M924 784l4.00195 -90l2 -84c0 -213.333 -34.833 -371.333 -104.5 -474s-176.834 -154 -321.501 -154c-148.667 0 -256.5 58.333 -323.5 175s-100.5 307.334 -100.5 572.001c0 269.333 33.5 461.666 100.5 576.999s176.833 173 329.5 173
c108.667 0 195.667 -25.333 261 -76s110.666 -128 135.999 -232l-174 -84c-14 71.333 -39.333 124.333 -76 159s-85 52 -145 52c-84.667 0 -144.667 -41.167 -180 -123.5s-53 -229.5 -53 -441.5s17.5 -359.167 52.5 -441.5s95.167 -123.5 180.5 -123.5
c76 0 133.167 31.5 171.5 94.5s57.5 156.5 57.5 280.5l-1 42l-1 27h-209v172h394zM264.002 1913l97.002 -0.99707c0 -23.333 3.16699 -44.333 9.5 -63s15.5 -34.334 27.5 -47.001c22 -23.333 56.667 -35 104 -35s82.333 11.667 105 35c11.333 12 20.166 27.167 26.499 45.5
s9.5 39.833 9.5 64.5l97 1c0 -46.667 -5.83301 -88.667 -17.5 -126s-27.834 -69 -48.501 -95c-38 -48 -95.333 -72 -172 -72c-74.667 0 -132 24 -172 72c-20 25.333 -36 56.666 -48 93.999s-18 79.666 -18 126.999z" />
    <glyph glyph-name="gbreve" unicode="&#x11f;" horiz-adv-x="801" 
d="M254 492c0 -126.667 10.167 -214.999 30.5 -264.999s55.166 -75 104.499 -75c47.333 0 82 25 104 75c10 25.333 17.667 59.833 23 103.5s8 97.5 8 161.5c0 125.333 -10.167 213.166 -30.5 263.499s-55.166 75.5 -104.499 75.5c-47.333 0 -82 -25.333 -104 -76
c-10 -24.667 -17.667 -59 -23 -103s-8 -97.333 -8 -160zM698 -22.999c0 -134 -24.834 -229.499 -74.501 -286.499s-132.5 -85.5 -248.5 -85.5c-95.333 0 -168.333 24.333 -219 73s-76 117.667 -76 207v31h171c0 -24.667 2.83301 -47.167 8.5 -67.5
s13.834 -37.5 24.501 -51.5c20 -26 51 -39 93 -39c50.667 0 86.834 15.667 108.501 47s32.5 82.666 32.5 153.999v139c-23.333 -37.333 -51.333 -65.666 -84 -84.999s-69.334 -29 -110.001 -29c-85.333 0 -148.666 41.333 -189.999 124s-62 210.667 -62 384
s20.167 301.166 60.5 383.499s104.166 123.5 191.499 123.5c41.333 0 78 -9 110 -27s60 -46.333 84 -85v94h180v-1004zM162.999 1434l97.002 -0.99707c0 -23.333 3.16699 -44.333 9.5 -63s15.5 -34.334 27.5 -47.001c22 -23.333 56.667 -35 104 -35s82.333 11.667 105 35
c11.333 12 20.166 27.167 26.499 45.5s9.5 39.833 9.5 64.5l97 1c0 -46.667 -5.83301 -88.667 -17.5 -126s-27.834 -69 -48.501 -95c-38 -48 -95.333 -72 -172 -72c-74.667 0 -132 24 -172 72c-20 25.333 -36 56.666 -48 93.999s-18 79.666 -18 126.999z" />
    <glyph glyph-name="Idotaccent" unicode="&#x130;" horiz-adv-x="461" 
d="M131 0v1460h197v-1460h-197zM122 1757c0 28 11.3311 53.501 33.998 76.501s48.334 34.5 77.001 34.5c29.333 0 55.5 -10.833 78.5 -32.5s34.5 -47.834 34.5 -78.501c0 -30 -11 -56.333 -33 -79s-48.667 -34 -80 -34c-29.333 0 -55.166 11.167 -77.499 33.5
s-33.5 48.833 -33.5 79.5z" />
    <glyph glyph-name="dotlessi" unicode="&#x131;" horiz-adv-x="410" 
d="M115 0v981h180v-981h-180z" />
    <glyph glyph-name="Lslash" unicode="&#x141;" horiz-adv-x="772" 
d="M135 0v635l-135 -96v174l135 96v651h197v-553l225 156v-174l-225 -156v-551h422v-182h-619z" />
    <glyph glyph-name="lslash" unicode="&#x142;" horiz-adv-x="428" 
d="M123 0v668l-123 -88v135l123 86v749h182v-661l123 86v-133l-123 -86v-756h-182z" />
    <glyph glyph-name="OE" unicode="&#x152;" horiz-adv-x="1341" 
d="M283 733c0 -205.333 16 -350.167 48 -434.5s85.667 -126.5 161 -126.5s128.5 40.333 159.5 121s46.5 227.334 46.5 440.001c0 207.333 -15.833 352.666 -47.5 435.999s-85.5 125 -161.5 125c-74.667 0 -127.667 -41.5 -159 -124.5s-47 -228.5 -47 -436.5zM1264 1462
v-175.999h-387v-436h354v-174h-354v-494h387v-182h-539v123c-28.667 -44.667 -64.5 -79 -107.5 -103s-91.167 -36 -144.5 -36c-133.333 0 -230.833 59.167 -292.5 177.5s-92.5 308.166 -92.5 569.499c0 262.667 31 453 93 571s162 177 300 177
c53.333 0 99.333 -11.667 138 -35s74 -61 106 -113v131h539z" />
    <glyph glyph-name="oe" unicode="&#x153;" horiz-adv-x="1202" 
d="M700 598h275.001v25c0 80 -10.833 138.5 -32.5 175.5s-55.834 55.5 -102.501 55.5c-43.333 0 -77.5 -19.833 -102.5 -59.5s-37.5 -96.167 -37.5 -169.5v-27zM1139 328l0.000976562 -12.999c0 -102.667 -26 -183.834 -78 -243.501s-123 -89.5 -213 -89.5
c-28 0 -53.5 2.33301 -76.5 7s-44.167 12 -63.5 22c-35.333 18.667 -66 49 -92 91c-25.333 -40 -56.833 -70 -94.5 -90s-82.5 -30 -134.5 -30c-104.667 0 -184.834 43.167 -240.501 129.5s-83.5 212.166 -83.5 377.499c0 167.333 27.667 293.833 83 379.5
s135.666 128.5 240.999 128.5c50.667 0 94.334 -9.33301 131.001 -28s68 -48 94 -88c24 40.667 54.667 70.834 92 90.501s82 29.5 134 29.5c108.667 0 187.667 -38.167 237 -114.5s74 -200.5 74 -372.5v-57h-449v-27c0 -52 2.66699 -96 8 -132s14.333 -66.667 27 -92
c24 -47.333 61 -71 111 -71c39.333 0 70 16.333 92 49c10.667 16 19.167 36.167 25.5 60.5s9.5 51.833 9.5 82.5zM231.002 494.001c0 -121.333 11.999 -210.833 35.999 -268.5s62 -86.5 114 -86.5c50.667 0 88.167 28.667 112.5 86s36.5 147 36.5 269
c0 119.333 -12 207.5 -36 264.5s-61.667 85.5 -113 85.5s-89.166 -28.167 -113.499 -84.5s-36.5 -144.833 -36.5 -265.5z" />
    <glyph glyph-name="Scedilla" unicode="&#x15e;" 
d="M94 256c44.667 -27.333 87.335 -48.165 128.002 -62.498s78 -21.5 112 -21.5c60 0 107.667 17.5 143 52.5s53 81.833 53 140.5c0 86 -67.667 184.333 -203 295l-36 30c-84.667 70 -144.834 136 -180.501 198s-53.5 130.667 -53.5 206c0 109.333 35 200.833 105 274.5
s156.667 110.5 260 110.5c45.333 0 89.166 -5.16699 131.499 -15.5s83.833 -27.166 124.5 -50.499v-196c-19.333 13.333 -37.833 24.666 -55.5 33.999s-36.5 17.666 -56.5 24.999c-36.667 13.333 -72.334 20 -107.001 20c-62 0 -111.667 -18.167 -149 -54.5
s-56 -84.833 -56 -145.5c0 -84 71.667 -183.333 215 -298l31 -24c84 -67.333 143.167 -132.333 177.5 -195s51.5 -133.334 51.5 -212.001c0 -112.667 -35.667 -205 -107 -277s-162.666 -108 -273.999 -108c-39.333 0 -80.5 6 -123.5 18s-86.5 30.333 -130.5 55v201z
M166.001 -433.999l0.00195312 119.005c17.333 -6 36 -11.833 56 -17.5s38.333 -10.334 55 -14.001s32.667 -6.5 48 -8.5s29.666 -3 42.999 -3c30 0 52.5 6.16699 67.5 18.5s22.5 31.166 22.5 56.499c0 28 -9.5 48.333 -28.5 61s-48.167 19 -87.5 19l-17 -1l-18 -1v205h86
v-94h12c32 0 59.333 -3.66699 82 -11s42.667 -19.333 60 -36c32.667 -32.667 49 -79.334 49 -140.001c0 -62.667 -17.833 -111 -53.5 -145s-86.834 -51 -153.501 -51c-32.667 0 -67 3.66699 -103 11c-18 3.33301 -37.5 7.66602 -58.5 12.999s-41.5 11.666 -61.5 18.999z" />
    <glyph glyph-name="scedilla" unicode="&#x15f;" horiz-adv-x="559" 
d="M57 207c23.333 -20.667 48.333 -37.3301 75 -49.9971c14 -5.33301 26.667 -9.33301 38 -12s24.333 -4 39 -4c38.667 0 69.834 11.167 93.501 33.5s35.5 51.5 35.5 87.5c0 41.333 -33 93.666 -99 156.999l-20 19c-64.667 60.667 -107.834 111 -129.501 151
s-32.5 84 -32.5 132c0 82 25.167 149.167 75.5 201.5s116.166 78.5 197.499 78.5c27.333 0 53.333 -3.16699 78 -9.5s50.334 -16.5 77.001 -30.5v-185c-18 21.333 -39 37.666 -63 48.999s-50.667 17 -80 17c-33.333 0 -60.833 -10.667 -82.5 -32s-32.5 -48.333 -32.5 -81
c0 -42.667 31.667 -93.334 95 -152.001l28 -26c59.333 -54 100.5 -103.333 123.5 -148s34.5 -93.667 34.5 -147c0 -82.667 -25.333 -149 -76 -199s-118.334 -75 -203.001 -75c-26.667 0 -54.167 3 -82.5 9s-58.166 15 -89.499 27v189zM52 -433.996l0.00195312 119.005
c17.333 -6 36 -11.833 56 -17.5s38.333 -10.334 55 -14.001s32.667 -6.5 48 -8.5s29.666 -3 42.999 -3c30 0 52.5 6.16699 67.5 18.5s22.5 31.166 22.5 56.499c0 28 -9.5 48.333 -28.5 61s-48.167 19 -87.5 19l-17 -1l-18 -1v205h86v-94h12c32 0 59.333 -3.66699 82 -11
s42.667 -19.333 60 -36c32.667 -32.667 49 -79.334 49 -140.001c0 -62.667 -17.833 -111 -53.5 -145s-86.834 -51 -153.501 -51c-32.667 0 -67 3.66699 -103 11c-18 3.33301 -37.5 7.66602 -58.5 12.999s-41.5 11.666 -61.5 18.999z" />
    <glyph glyph-name="Scaron" unicode="&#x160;" 
d="M94 256c44.667 -27.333 87.335 -48.165 128.002 -62.498s78 -21.5 112 -21.5c60 0 107.667 17.5 143 52.5s53 81.833 53 140.5c0 86 -67.667 184.333 -203 295l-36 30c-84.667 70 -144.834 136 -180.501 198s-53.5 130.667 -53.5 206c0 109.333 35 200.833 105 274.5
s156.667 110.5 260 110.5c45.333 0 89.166 -5.16699 131.499 -15.5s83.833 -27.166 124.5 -50.499v-196c-19.333 13.333 -37.833 24.666 -55.5 33.999s-36.5 17.666 -56.5 24.999c-36.667 13.333 -72.334 20 -107.001 20c-62 0 -111.667 -18.167 -149 -54.5
s-56 -84.833 -56 -145.5c0 -84 71.667 -183.333 215 -298l31 -24c84 -67.333 143.167 -132.333 177.5 -195s51.5 -133.334 51.5 -212.001c0 -112.667 -35.667 -205 -107 -277s-162.666 -108 -273.999 -108c-39.333 0 -80.5 6 -123.5 18s-86.5 30.333 -130.5 55v201z
M157.001 1939h105l133 -209l133 209h105l-152 -348h-172z" />
    <glyph glyph-name="scaron" unicode="&#x161;" horiz-adv-x="559" 
d="M57 207c23.333 -20.667 48.333 -37.3301 75 -49.9971c14 -5.33301 26.667 -9.33301 38 -12s24.333 -4 39 -4c38.667 0 69.834 11.167 93.501 33.5s35.5 51.5 35.5 87.5c0 41.333 -33 93.666 -99 156.999l-20 19c-64.667 60.667 -107.834 111 -129.501 151
s-32.5 84 -32.5 132c0 82 25.167 149.167 75.5 201.5s116.166 78.5 197.499 78.5c27.333 0 53.333 -3.16699 78 -9.5s50.334 -16.5 77.001 -30.5v-185c-18 21.333 -39 37.666 -63 48.999s-50.667 17 -80 17c-33.333 0 -60.833 -10.667 -82.5 -32s-32.5 -48.333 -32.5 -81
c0 -42.667 31.667 -93.334 95 -152.001l28 -26c59.333 -54 100.5 -103.333 123.5 -148s34.5 -93.667 34.5 -147c0 -82.667 -25.333 -149 -76 -199s-118.334 -75 -203.001 -75c-26.667 0 -54.167 3 -82.5 9s-58.166 15 -89.499 27v189zM43 1460h105l133 -209l133 209h105
l-152 -348h-172z" />
    <glyph glyph-name="Ydieresis" unicode="&#x178;" 
d="M494 621v-621h-203v621l-275 839h203l123 -407c7.33301 -24 15.666 -57.667 24.999 -101l26 -133c6.66699 48 10.334 73.333 11.001 76c5.33301 20.667 9.5 37.834 12.5 51.501s6.83301 30.167 11.5 49.5s10 37.666 16 54.999l123 409h205zM135 1753
c0 29.333 10.5 54.666 31.5 75.999s45.833 32 74.5 32c30 0 55.667 -10.667 77 -32s32 -46.666 32 -75.999s-10.833 -54.5 -32.5 -75.5s-47.167 -31.5 -76.5 -31.5s-54.333 10.333 -75 31s-31 46 -31 76zM438 1753c0 29.333 10.502 54.666 31.502 75.999s46.167 32 75.5 32
s54.666 -10.667 75.999 -32s32 -46.666 32 -75.999s-10.833 -54.5 -32.5 -75.5s-46.834 -31.5 -75.501 -31.5c-30 0 -55.333 10.333 -76 31s-31 46 -31 76z" />
    <glyph glyph-name="Zcaron" unicode="&#x17d;" horiz-adv-x="784" 
d="M18 0l474 1286h-404v174h672l-469 -1278h428v-182h-701zM155 1939h105l133 -209l133 209h105l-152 -348h-172z" />
    <glyph glyph-name="zcaron" unicode="&#x17e;" horiz-adv-x="676" 
d="M27 0l364 823h-342v158h600l-366 -819h338v-162h-594zM100 1460h105l133 -209l133 209h105l-152 -348h-172z" />
    <glyph glyph-name="florin" unicode="&#x192;" 
d="M37 -215l23.001 -4.00098l22 -2c22.667 0 40.5 6.66699 53.5 20s22.5 35.333 28.5 66l149 889h-168l25 127h166l70 405c10 67.333 32.333 116.333 67 147s83 46 145 46c19.333 0 32.166 -0.166992 38.499 -0.5s17.333 -1.66602 33 -3.99902s27.667 -4.33301 36 -6
s19.833 -4.5 34.5 -8.5l-33 -155l-33 6l-30 2c-26.667 0 -47 -7.5 -61 -22.5s-24.667 -43.167 -32 -84.5l-55 -325h182l-20 -127h-182l-158 -944c-13.333 -77.333 -35.833 -130.833 -67.5 -160.5s-80.167 -44.5 -145.5 -44.5c-14 0 -31.667 2 -53 6l-66 18z" />
    <glyph glyph-name="circumflex" unicode="&#x2c6;" horiz-adv-x="1024" 
d="M274 1112l152 348h172l152 -348h-105l-133 211l-133 -211h-105z" />
    <glyph glyph-name="caron" unicode="&#x2c7;" horiz-adv-x="1024" 
d="M274 1460h105l133 -209l133 209h105l-152 -348h-172z" />
    <glyph glyph-name="breve" unicode="&#x2d8;" horiz-adv-x="1024" 
d="M274 1434l97.002 -0.99707c0 -23.333 3.16699 -44.333 9.5 -63s15.5 -34.334 27.5 -47.001c22 -23.333 56.667 -35 104 -35s82.333 11.667 105 35c11.333 12 20.166 27.167 26.499 45.5s9.5 39.833 9.5 64.5l97 1c0 -46.667 -5.83301 -88.667 -17.5 -126
s-27.834 -69 -48.501 -95c-38 -48 -95.333 -72 -172 -72c-74.667 0 -132 24 -172 72c-20 25.333 -36 56.666 -48 93.999s-18 79.666 -18 126.999z" />
    <glyph glyph-name="dotaccent" unicode="&#x2d9;" horiz-adv-x="1024" 
d="M403 1278c0 28 11.3311 53.501 33.998 76.501s48.334 34.5 77.001 34.5c29.333 0 55.5 -10.833 78.5 -32.5s34.5 -47.834 34.5 -78.501c0 -30 -11 -56.333 -33 -79s-48.667 -34 -80 -34c-29.333 0 -55.166 11.167 -77.499 33.5s-33.5 48.833 -33.5 79.5z" />
    <glyph glyph-name="ring" unicode="&#x2da;" horiz-adv-x="1024" 
d="M258 1352c0 70.667 24.833 131 74.5 181s110.167 75 181.5 75s131.833 -24.833 181.5 -74.5s74.5 -110.167 74.5 -181.5c0 -69.333 -25 -129.333 -75 -180s-110.333 -76 -181 -76c-68.667 0 -128.5 25.167 -179.5 75.5s-76.5 110.5 -76.5 180.5zM383 1350
c0 -36 13 -66.499 39 -91.499s56.667 -37.5 92 -37.5c37.333 0 68.5 12.167 93.5 36.5s37.5 55.166 37.5 92.499c0 36.667 -12.667 68 -38 94s-56.333 39 -93 39c-36 0 -66.833 -13.167 -92.5 -39.5s-38.5 -57.5 -38.5 -93.5z" />
    <glyph glyph-name="ogonek" unicode="&#x2db;" horiz-adv-x="1024" 
d="M604 0c-18.667 -18.667 -34.668 -36.998 -48.001 -54.998s-24.333 -35.333 -33 -52c-16.667 -35.333 -25 -71.333 -25 -108c0 -28.667 5.5 -48.834 16.5 -60.501s29.167 -17.5 54.5 -17.5h70v-156h-80c-61.333 0 -108.666 14.833 -141.999 44.5s-50 73.167 -50 130.5
c0 43.333 12.333 87.166 37 131.499s64 91.833 118 142.5h82z" />
    <glyph glyph-name="tilde" unicode="&#x2dc;" horiz-adv-x="1024" 
d="M752 1397c-12 -77.333 -30.834 -134.334 -56.501 -171.001s-59.5 -55 -101.5 -55l-26 3c-6.66699 0.666992 -11.5 1.33398 -14.5 2.00098s-8.16699 2.66699 -15.5 6l-66 24l-26 7l-24 4c-18 0 -32.667 -5.66699 -44 -17c-8.66699 -8.66699 -17.334 -25.667 -26.001 -51
h-80c10 72 27.833 126.5 53.5 163.5s59.167 55.5 100.5 55.5c8.66699 0 18.334 -1.33301 29.001 -4l38 -10l70 -25l20 -5l17 -1c18.667 0 33.834 5.83301 45.501 17.5s20.5 30.5 26.5 56.5h80z" />
    <glyph glyph-name="Omega" unicode="&#x3a9;" horiz-adv-x="1573" 
d="M1473 156v-155.999h-590v150c126.667 73.333 225.334 166.333 296.001 279c34 56 59.667 115 77 177s26 127.667 26 197c0 168 -45.667 303.167 -137 405.5s-211 153.5 -359 153.5c-146.667 0 -266.167 -51.667 -358.5 -155s-138.5 -238 -138.5 -404
c0 -136 34.167 -260.333 102.5 -373s167.833 -206 298.5 -280v-150h-590v156h332c-108.667 88 -189.334 182.833 -242.001 284.5s-79 213.5 -79 335.5c0 219.333 62.833 397 188.5 533s287.834 204 486.501 204c199.333 0 361.833 -67.333 487.5 -202
s188.5 -311.667 188.5 -531c0 -124.667 -26.333 -237.834 -79 -339.501s-133.334 -196.5 -242.001 -284.5h332z" />
    <glyph glyph-name="pi" unicode="&#x3c0;" horiz-adv-x="1186" 
d="M1139 930l-185.001 -0.000976562l-110 -516l-22 -115l-7 -74c0 -37.333 8 -64.333 24 -81s43 -25 81 -25h16c6 0 11.5 0.166992 16.5 0.5s9.5 0.833008 13.5 1.5l52 8l-29 -129l-5 -1c-42 -10 -75 -15 -99 -15c-72.667 0 -128.5 17.167 -167.5 51.5
s-58.5 84.5 -58.5 150.5c0 36 3.66699 76.333 11 121s22.333 121.334 45 230.001l84 393h-348l-197 -930h-158l197 930h-39c-36 0 -63.833 -10 -83.5 -30s-33.5 -53.667 -41.5 -101h-145c16.667 102 47.834 172.5 93.501 211.5s120.167 58.5 223.5 58.5h866z" />
    <glyph glyph-name="endash" unicode="&#x2013;" horiz-adv-x="1024" 
d="M0 430v121h1024v-121h-1024z" />
    <glyph glyph-name="emdash" unicode="&#x2014;" horiz-adv-x="2048" 
d="M0 430v121h2048v-121h-2048z" />
    <glyph glyph-name="quoteleft" unicode="&#x2018;" horiz-adv-x="422" 
d="M68 1036l186 514l100 -30l-133 -531z" />
    <glyph glyph-name="quoteright" unicode="&#x2019;" horiz-adv-x="422" 
d="M354 1503l-186 -512l-100 29l133 530z" />
    <glyph glyph-name="quotesinglbase" unicode="&#x201a;" horiz-adv-x="422" 
d="M354 197l-186 -514l-100 30l133 531z" />
    <glyph glyph-name="quotedblleft" unicode="&#x201c;" horiz-adv-x="672" 
d="M68 1036l186 514l100 -30l-133 -531zM315 1036l187 514l100 -30l-133 -531z" />
    <glyph glyph-name="quotedblright" unicode="&#x201d;" horiz-adv-x="672" 
d="M354 1503l-186 -512l-100 29l133 530zM602 1503l-186 -512l-101 29l134 530z" />
    <glyph glyph-name="quotedblbase" unicode="&#x201e;" horiz-adv-x="672" 
d="M602 197l-186 -514l-101 30l134 531zM354 197l-186 -514l-100 30l133 531z" />
    <glyph glyph-name="dagger" unicode="&#x2020;" horiz-adv-x="780" 
d="M297 -403v1226h-270v172h270v465h188v-465h269v-172h-269v-1226h-188z" />
    <glyph glyph-name="daggerdbl" unicode="&#x2021;" horiz-adv-x="780" 
d="M477 -403h-174v444h-276v164h276v653h-276v164h276v438h174v-438h277v-164h-277v-653h277v-164h-277v-444z" />
    <glyph glyph-name="bullet" unicode="&#x2022;" horiz-adv-x="1208" 
d="M307 762c0 81.333 29.167 150.833 87.5 208.5s128.166 86.5 209.499 86.5c80.667 0 150 -28.833 208 -86.5s87 -127.167 87 -208.5s-29.167 -151.166 -87.5 -209.499s-128.166 -87.5 -209.499 -87.5s-150.833 29.167 -208.5 87.5s-86.5 128.166 -86.5 209.499z" />
    <glyph glyph-name="ellipsis" unicode="&#x2026;" horiz-adv-x="2048" 
d="M227 92c0 32.667 10.999 60 32.999 82s48.667 33 80 33c30.667 0 57.334 -11.333 80.001 -34s34 -49.667 34 -81c0 -30 -11 -56.667 -33 -80c-22.667 -21.333 -49.667 -32 -81 -32c-32.667 0 -59.667 11 -81 33s-32 48.333 -32 79zM908.999 92
c0 32.667 10.999 60 32.999 82s48.667 33 80 33c30.667 0 57.334 -11.333 80.001 -34s34 -49.667 34 -81c0 -30 -11 -56.667 -33 -80c-22.667 -21.333 -49.667 -32 -81 -32c-32.667 0 -59.667 11 -81 33s-32 48.333 -32 79zM1593 92c0 32.667 10.999 60 32.999 82
s48.667 33 80 33c30.667 0 57.334 -11.333 80.001 -34s34 -49.667 34 -81c0 -30 -11 -56.667 -33 -80c-22.667 -21.333 -49.667 -32 -81 -32c-32.667 0 -59.667 11 -81 33s-32 48.333 -32 79z" />
    <glyph glyph-name="perthousand" unicode="&#x2030;" horiz-adv-x="2208" 
d="M1765 408c0 -124.667 7.83301 -205 23.5 -241s44.167 -54 85.5 -54c42 0 71 18.833 87 56.5s24 117.167 24 238.5c0 120.667 -8 199.834 -24 237.501s-45 56.5 -87 56.5c-40.667 0 -69 -17.833 -85 -53.5s-24 -115.834 -24 -240.501zM1616 408
c0 168.667 18.667 281.333 56 338s104.666 85 201.999 85s164.666 -28.667 201.999 -86s56 -169.666 56 -336.999c0 -170 -18.667 -283.5 -56 -340.5s-104.666 -85.5 -201.999 -85.5s-164.666 28.667 -201.999 86s-56 170.666 -56 339.999zM1122 407.999
c0 -124.667 7.83301 -205 23.5 -241s44.167 -54 85.5 -54s70 18.833 86 56.5s24 117.167 24 238.5c0 120.667 -7.83301 199.834 -23.5 237.501s-44.5 56.5 -86.5 56.5c-40.667 0 -69 -17.833 -85 -53.5s-24 -115.834 -24 -240.501zM973 407.999
c0 168.667 18.667 281.333 56 338s104.666 85 201.999 85s164.666 -28.667 201.999 -86s56 -169.666 56 -336.999c0 -170 -18.667 -283.5 -56 -340.5s-104.666 -85.5 -201.999 -85.5s-164.666 28.667 -201.999 86s-56 170.666 -56 339.999zM514 -18.002h-127l664 1497h127z
M223 1047c0 -120 7.99805 -199.168 23.998 -237.501s45 -57.5 87 -57.5c40.667 0 68.834 18.333 84.501 55s23.5 116.667 23.5 240c0 124 -7.66699 204 -23 240s-43.666 54 -84.999 54c-42 0 -71 -18.167 -87 -54.5s-24 -116.166 -24 -239.499zM75.998 1047
c0 170 18.668 283.501 56.001 340.501s104.666 85.5 201.999 85.5c96 0 163 -29 201 -87s57 -171 57 -339c0 -170.667 -18.667 -284.334 -56 -341.001s-104.666 -85 -201.999 -85c-96.667 0 -163.834 28.5 -201.501 85.5s-56.5 170.5 -56.5 340.5z" />
    <glyph glyph-name="guilsinglleft" unicode="&#x2039;" horiz-adv-x="471" 
d="M59 489l238 437l113 -64l-203 -373l203 -372l-113 -62z" />
    <glyph glyph-name="guilsinglright" unicode="&#x203a;" horiz-adv-x="471" 
d="M410 489l-236 -434l-115 62l205 372l-205 373l115 64z" />
    <glyph glyph-name="franc" unicode="&#x20a3;" horiz-adv-x="1341" 
d="M131 0v1460h598v-176h-401v-436h368v-174h-368v-674h-197zM901 0l-0.00195312 981h174v-143c24 52.667 55.667 91.667 95 117c20.667 14 42.334 24.833 65.001 32.5s48.334 11.5 77.001 11.5v-190h-30c-70 0 -121.333 -17.5 -154 -52.5s-49 -89.833 -49 -164.5v-592h-178
z" />
    <glyph glyph-name="trademark" unicode="&#x2122;" horiz-adv-x="1706" 
d="M948 1456l160 -405l149 405h132v-534h-82v458l-172 -458h-54l-180 458v-458h-82v534h129zM694 1456v-67h-172v-467h-94v467h-174v67h440z" />
    <glyph glyph-name="partialdiff" unicode="&#x2202;" horiz-adv-x="1044" 
d="M754 604c7.33301 49.333 13.666 102.998 18.999 160.998c0 18.667 1.16699 46.667 3.5 84s3.5 62.333 3.5 75c0 93.333 -13.167 165.5 -39.5 216.5s-63.5 76.5 -111.5 76.5c-35.333 0 -74.166 -21.167 -116.499 -63.5s-78.833 -63.5 -109.5 -63.5
c-18.667 0 -35.667 7 -51 21c-6.66699 6.66699 -12 14.334 -16 23.001s-6 18.334 -6 29.001c0 39.333 22.667 74.5 68 105.5s99.666 46.5 162.999 46.5c114 0 205 -50.833 273 -152.5s102 -239.167 102 -412.5c0 -223.333 -46.333 -408.333 -139 -555
s-207.334 -220 -344.001 -220c-97.333 0 -177.666 35.667 -240.999 107s-95 162 -95 272c0 125.333 36.167 230.5 108.5 315.5s161.166 127.5 266.499 127.5c66.667 0 120.834 -15.5 162.501 -46.5s74.834 -79.833 99.501 -146.5zM709 482.998
c0 78 -15.167 138.166 -45.5 180.499s-72.5 63.5 -126.5 63.5c-74.667 0 -136 -42.5 -184 -127.5s-72 -196.167 -72 -333.5c0 -78.667 14.667 -138.167 44 -178.5s72 -60.5 128 -60.5c74.667 0 136 42.833 184 128.5s72 194.834 72 327.501z" />
    <glyph glyph-name="Delta" unicode="&#x2206;" horiz-adv-x="1356" 
d="M1122 158l-444 1138l-445 -1138h889zM780 1473l586 -1473h-1374l586 1473h202z" />
    <glyph glyph-name="product" unicode="&#x220f;" horiz-adv-x="1528" 
d="M160 1473h1208v-1866h-201v1693h-809v-1693h-198v1866z" />
    <glyph glyph-name="c294" unicode="&#x2211;" horiz-adv-x="1346" 
d="M51 1473h1239v-166h-989l690 -744l-719 -792h1035v-164h-1289v139l738 813l-705 758v156z" />
    <glyph glyph-name="c295" unicode="&#x2212;" horiz-adv-x="1706" 
d="M1452 670v-119h-1198v119h1198z" />
    <glyph glyph-name="fraction" unicode="&#x2215;" horiz-adv-x="342" 
d="M-342 -18l887 1497h137l-887 -1497h-137z" />
    <glyph glyph-name="periodcentered" unicode="&#x2219;" horiz-adv-x="395" 
d="M84 729c0 32.667 10.999 60 32.999 82s48.667 33 80 33c30.667 0 57.334 -11.333 80.001 -34s34 -49.667 34 -81c0 -30 -11 -56.333 -33 -79s-49 -34 -81 -34c-32.667 0 -59.667 11 -81 33s-32 48.667 -32 80z" />
    <glyph glyph-name="radical" unicode="&#x221a;" horiz-adv-x="1288" 
d="M1288 1647v-82h-119l-594 -1606h-53l-323 893l-119 -43l-23 68l262 92l265 -729l522 1407h182z" />
    <glyph glyph-name="infinity" unicode="&#x221e;" horiz-adv-x="1706" 
d="M905 559c34 -63.333 73.8311 -110.501 119.498 -141.501s97.5 -46.5 155.5 -46.5c68.667 0 125 23.833 169 71.5s66 107.834 66 180.501c0 72 -20.167 131.833 -60.5 179.5s-91.166 71.5 -152.499 71.5c-56 0 -106.667 -24 -152 -72s-93.666 -129 -144.999 -243z
M802.998 665.999c-34 63.333 -73.666 110.833 -118.999 142.5s-96.666 47.5 -153.999 47.5c-70.667 0 -127.834 -23.667 -171.501 -71s-65.5 -108.333 -65.5 -183c0 -72 20.167 -131.667 60.5 -179s91.166 -71 152.499 -71c55.333 0 105.5 23 150.5 69
s93.833 127.667 146.5 245zM839.999 726.999c22.667 46.667 45.834 86.834 69.501 120.501s49.167 61.5 76.5 83.5c52 44 110.333 66 175 66c88.667 0 163.834 -36.333 225.501 -109s92.5 -163.334 92.5 -272.001c0 -114 -27.333 -206.333 -82 -277s-125.667 -106 -213 -106
c-63.333 0 -119 19.667 -167 59s-98.333 106.666 -151 201.999c-46.667 -92 -95.834 -159.167 -147.501 -201.5s-109.5 -63.5 -173.5 -63.5c-88.667 0 -163.834 36.333 -225.501 109s-92.5 163.334 -92.5 272.001c0 114 27.5 206.333 82.5 277s126.5 106 214.5 106
c63.333 0 120.5 -21.167 171.5 -63.5s99.167 -109.833 144.5 -202.5z" />
    <glyph glyph-name="integral" unicode="&#x222b;" horiz-adv-x="1020" 
d="M301 -268c77.333 0 115.998 221.334 115.998 664.001l5 216c0 163.333 9 304.5 27 423.5s43 217.5 75 295.5c60 144.667 153.667 217 281 217c49.333 0 90 -13 122 -39c14.667 -12.667 26 -27.667 34 -45s12 -37 12 -59c0 -32 -10.333 -57.833 -31 -77.5
s-48 -29.5 -82 -29.5c-35.333 0 -63.666 11.667 -84.999 35s-32 54 -32 92c0 4.66699 -1.83301 9.5 -5.5 14.5s-8.5 7.83301 -14.5 8.5c-79.333 0 -119 -211.333 -119 -634l-6 -245c0 -94 -3 -179.167 -9 -255.5s-13.667 -144.833 -23 -205.5
c-14 -104 -34.667 -186.333 -62 -247c-31.333 -74.667 -72 -132 -122 -172s-106.333 -60 -169 -60c-48.667 0 -88.5 12.667 -119.5 38s-46.5 57.666 -46.5 96.999c0 35.333 10.667 63.333 32 84s49 31 83 31c31.333 0 57.833 -9.66699 79.5 -29s32.5 -41.666 32.5 -66.999
c0 -16 2.33301 -28.333 7 -37s11.334 -13.334 20.001 -14.001z" />
    <glyph glyph-name="approxequal" unicode="&#x2248;" horiz-adv-x="1706" 
d="M1530 453c-71.333 -50 -138.833 -86.834 -202.5 -110.501s-125.834 -35.5 -186.501 -35.5c-64.667 0 -160.834 23.167 -288.501 69.5s-224.167 69.5 -289.5 69.5c-53.333 0 -109.166 -11.667 -167.499 -35s-130.833 -64.666 -217.5 -123.999v131
c69.333 47.333 136.333 83.333 201 108s126.667 37 186 37c73.333 0 173.833 -22.833 301.5 -68.5s219.834 -68.5 276.501 -68.5s114.167 11.833 172.5 35.5s129.833 64.5 214.5 122.5v-131zM1530 802.999c-68.667 -48 -135.336 -84 -200.003 -108s-127 -36 -187 -36
c-65.333 0 -161.5 23 -288.5 69s-224.167 69 -291.5 69c-54.667 0 -112 -12 -172 -36c-28 -12 -60.167 -28.167 -96.5 -48.5s-75.166 -44.833 -116.499 -73.5v131c69.333 47.333 136.333 83.333 201 108s126.667 37 186 37c74 0 174.167 -22.833 300.5 -68.5
s218.833 -68.5 277.5 -68.5c30.667 0 59.834 2.66699 87.501 8s56.834 14.333 87.501 27c57.333 22.667 128 63 212 121v-131z" />
    <glyph glyph-name="notequal" unicode="&#x2260;" horiz-adv-x="1706" 
d="M1298 1110l-196 -250h350v-115h-424l-211 -270h635v-115h-709l-251 -319l-89 70l197 249h-346v115h420l211 270h-631v115h704l252 320z" />
    <glyph glyph-name="lessequal" unicode="&#x2264;" horiz-adv-x="1706" 
d="M1444 150v-117h-1182v117h1182zM1444 1067l-977 -324l977 -323v-125l-1182 399v101l1182 397v-125z" />
    <glyph glyph-name="greaterequal" unicode="&#x2265;" horiz-adv-x="1706" 
d="M1444 150v-117h-1182v117h1182zM1444 795v-101l-1182 -399v125l979 323l-979 324v125z" />
    <glyph glyph-name="lozenge" unicode="&#x25ca;" horiz-adv-x="1012" 
d="M506 1409l-385 -817l385 -825l385 825zM506 1653l500 -1061l-500 -1069l-500 1069z" />
    <glyph glyph-name="apple" unicode="&#xf000;" horiz-adv-x="1618" 
d="M836 1216l-2 14v23c0 82.667 31.667 159 95 229s142 114 236 132l1 -23l1 -39c0 -87.333 -34.5 -165.5 -103.5 -234.5s-136.833 -103.5 -203.5 -103.5h-8l-8 1zM1505 403c-76 -164 -144.165 -278 -204.498 -342s-128.5 -96 -204.5 -96c-32.667 0 -76.334 11 -131.001 33
s-95.667 33 -123 33c-29.333 0 -72.833 -11 -130.5 -33s-100.167 -33 -127.5 -33c-42.667 0 -85.334 14.667 -128.001 44s-86 73.333 -130 132c-66.667 91.333 -119.334 189.666 -158.001 294.999c-18 52 -31.667 103 -41 153s-14 99.333 -14 148
c0 146 41.667 264.833 125 356.5s191 137.5 323 137.5c45.333 0 97.5 -11.333 156.5 -34s99.833 -34 122.5 -34c12 0 27.333 2.66699 46 8s43.667 14.333 75 27c58.667 23.333 109.667 35 153 35c74 0 139.833 -13.167 197.5 -39.5s111.5 -67.833 161.5 -124.5
c-67.333 -42.667 -117.666 -91.167 -150.999 -145.5s-50 -115.166 -50 -182.499c0 -74 20 -140.5 60 -199.5s97.667 -105.167 173 -138.5z" />
    <glyph glyph-name="fi" unicode="&#xf001;" horiz-adv-x="840" 
d="M520 1274c0 31.333 11 59.001 33 83.001c22.667 22.667 50 34 82 34s59.167 -11.333 81.5 -34s33.5 -50.334 33.5 -83.001c0 -32 -11.167 -59.167 -33.5 -81.5s-49.5 -33.5 -81.5 -33.5c-31.333 0 -58.333 11 -81 33s-34 49.333 -34 82zM545 0.000976562v981h180v-981
h-180zM125 0.000976562v842h-98v139h98v344c0 76.667 18.833 136.834 56.5 180.501s89.167 65.5 154.5 65.5c14.667 0 32 -2 52 -6c10.667 -2 20.834 -4.16699 30.501 -6.5s21.167 -5.83301 34.5 -10.5v-164l-37 10l-31 3c-26.667 0 -46.334 -7.83301 -59.001 -23.5
s-19 -40.834 -19 -75.501v-317h135v-139h-135v-842h-182z" />
    <glyph glyph-name="fl" unicode="&#xf002;" horiz-adv-x="840" 
d="M545 0v1550h180v-1550h-180zM125 0v842h-98v139h98v344c0 76.667 18.833 136.834 56.5 180.501s89.167 65.5 154.5 65.5c14.667 0 32 -2 52 -6c10.667 -2 20.834 -4.16699 30.501 -6.5s21.167 -5.83301 34.5 -10.5v-164l-37 10l-31 3
c-26.667 0 -46.334 -7.83301 -59.001 -23.5s-19 -40.834 -19 -75.501v-317h135v-139h-135v-842h-182z" />
    <glyph glyph-name=".null" horiz-adv-x="0" 
 />
    <glyph glyph-name="nonmarkingreturn" horiz-adv-x="395" 
 />
    </font>
</defs>
</svg>
